<svg id="SvgjsSvg1001" width="288" height="288" xmlns="http://www.w3.org/2000/svg" version="1.1" xmlns:xlink="http://www.w3.org/1999/xlink" xmlns:svgjs="http://svgjs.com/svgjs"><defs id="SvgjsDefs1002"></defs><g id="SvgjsG1008" transform="matrix(0.9167,0,0,0.9167,11.944407365512859,12.005367980384818)"><svg xmlns="http://www.w3.org/2000/svg" enable-background="new 0 0 839 792" viewBox="0 0 839 792" width="288" height="288"><path fill="#ffffff" d="M41.5,400.3c0.3-9.1,0.4-16.8,0.9-24.5c0.7-10.9,2-21.8,3.5-32.6c2.6-18.1,6.6-35.8,11.9-53.3
		c4.3-14.4,9.4-28.5,15.5-42.3c4.6-10.4,9.5-20.6,14.9-30.6c6.8-12.5,14.2-24.7,22.5-36.3c5.3-7.5,10.9-14.8,16.6-22
		c3.6-4.6,7.6-8.8,11.3-13.3c6.3-7.6,13.4-14.4,20.5-21.2c10.4-9.8,21.3-18.9,32.7-27.4c14-10.5,28.7-20,44-28.5
		c11.3-6.2,22.8-11.9,34.7-17c12.8-5.5,25.8-10.2,39.2-14.3c13.7-4.2,27.6-7.6,41.6-10.2c9.7-1.8,19.3-3.4,29.1-4.2
		c6.2-0.6,12.4-1.1,18.6-1.5c5.6-0.4,11.2-0.7,16.7-0.7c6.2,0,12.4,0.4,18.6,0.7c5.3,0.3,10.7,0.5,16,1.1c9.1,1,18.2,2.1,27.3,3.5
		c12.9,2.1,25.7,4.9,38.4,8.4c10.5,2.9,21,6.3,31.2,10.1c14.5,5.3,28.6,11.6,42.3,18.6c10.7,5.5,21,11.5,31.2,17.9
		c12.8,8.2,25.1,17.1,36.8,26.7c4.7,3.9,9.3,8,13.9,12.1c4.4,4,8.7,8,12.9,12.2c7.9,8,15.4,16.4,22.6,25.1
		c7.2,8.9,14.1,18,20.6,27.4c11.2,16.5,21.1,33.7,29.7,51.8c7.1,15,13.1,30.4,18.3,46.1c5.3,16.4,9.6,33.2,12.5,50.2
		c1.5,8.6,2.6,17.4,3.7,26.1c1.1,8.6,1.9,17.3,1.9,26c0,5.9,0.5,11.8,0.3,17.7c-0.3,8.8-0.9,17.5-1.7,26.3
		c-0.6,7.4-1.5,14.8-2.6,22.1c-1.1,7.3-2.5,14.5-3.9,21.7c-2.9,14.4-6.9,28.6-11.5,42.5c-3.9,11.7-8.2,23.2-13.5,34.4
		c-4.1,8.6-8.1,17.2-12.6,25.6c-7.1,13.5-15.2,26.5-24.1,38.9c-7,9.9-14.3,19.5-22.2,28.5c-5.5,6.2-10.9,12.5-16.8,18.4
		c-8.5,8.5-17.5,16.6-26.8,24.3c-10.4,8.5-21.2,16.5-32.3,24c-9.1,6-18.4,11.6-27.9,16.8c-12.9,7-26.2,13.4-39.8,18.9
		c-16.4,6.6-33.2,12.1-50.3,16.4c-11.6,2.9-23.3,5.5-35.2,7c-8.2,1.1-16.5,2-24.7,3c-8.3,1-16.7,1.4-25.1,1.4
		c-6.4,0-12.8,0.1-19.1-0.3c-6.8-0.3-13.5-0.9-20.3-1.7c-9.7-1.1-19.3-2.4-28.9-3.9c-14.1-2.3-27.8-5.7-41.5-9.7
		c-15.7-4.6-31.1-10.2-46.1-16.9c-16.9-7.5-33.2-16.1-48.9-25.9c-14.9-9.4-29.1-19.7-42.6-31c-5.1-4.2-10-8.8-14.8-13.2
		c-3.4-3.1-6.8-6.3-10-9.7c-8.3-8.6-16.2-17.4-23.7-26.7c-7-8.6-13.6-17.6-19.8-26.8c-6.2-9.1-11.9-18.6-17.2-28.2
		c-5.1-9.3-9.9-18.8-14.3-28.5c-4.5-10-8.5-20.2-12.1-30.5c-5.8-16.5-10.4-33.2-13.8-50.3c-1.9-9.5-3.6-19.1-4.7-28.8
		c-0.7-6.9-1.4-13.8-2-20.7C42.1,412.7,41.8,405.7,41.5,400.3z M414.3,759.4c0,0.2,0,0.3,0,0.5c10.4-0.4,20.8-0.7,31.1-1.3
		c7.3-0.4,14.6-1.2,21.9-2.1c13.7-1.7,27.3-4.4,40.7-7.8c13.8-3.5,27.3-7.9,40.6-13c19.4-7.4,37.9-16.6,55.7-27.2
		c12.2-7.3,23.9-15.2,34.9-24c8.3-6.7,16.6-13.6,24.5-20.8c7.2-6.6,13.9-13.7,20.6-20.8c4.5-4.7,8.9-9.6,13.1-14.6
		c10.4-12.3,19.8-25.3,28.4-38.9c7.3-11.6,13.9-23.5,19.8-35.9c7.3-15.2,13.5-30.9,18.6-47c4.6-14.5,8.2-29.2,11-44.2
		c1.8-9.8,3.3-19.7,4-29.7c0.6-8.4,1.4-16.9,1.7-25.3c0.3-12.1,0-24.3-0.7-36.4c-0.5-8.4-1.3-16.8-2.4-25.2
		c-1.4-11.6-3.6-23-6.1-34.4c-4.2-18.3-9.9-36.2-17-53.7c-6.2-15.4-13.3-30.3-21.8-44.5c-4.8-8.1-9.9-16.1-15.1-23.9
		c-6.9-10.4-14.5-20.3-22.7-29.7c-5-5.7-10.1-11.4-15.3-16.9c-4-4.2-8.1-8.2-12.3-12.1c-6.8-6.2-13.5-12.4-20.6-18.3
		c-10.9-9.1-22.5-17.4-34.5-25.1c-17.2-11-35.2-20.5-54.1-28.4c-17.4-7.3-35.3-13.4-53.7-17.6c-8.7-2-17.5-3.9-26.3-5.4
		c-8.3-1.4-16.6-2.1-24.9-3.2c-9-1.1-18-1.4-27-1.6c-8-0.2-16,0-24,0.3c-5.8,0.2-11.6,0.5-17.4,1c-7.3,0.6-14.6,1.5-21.9,2.4
		C352,36,341,38.1,330.2,40.7c-14.2,3.4-28.1,7.5-41.7,12.7c-13.4,5.1-26.5,10.7-39.2,17.3c-15,7.8-29.4,16.5-43.2,26.3
		c-13.2,9.3-25.7,19.5-37.5,30.6c-6.9,6.6-13.6,13.5-20.2,20.5c-5.6,5.9-11,12-16.1,18.3c-10.9,13.2-20.6,27.3-29.4,42
		c-12,20-21.9,40.9-29.7,62.8c-8.4,23.3-14.3,47.2-17.6,71.8c-1.5,10.8-2.5,21.6-3.1,32.4c-0.3,5-0.3,10.1-0.2,15.1
		c0.1,7.9,0.3,15.8,0.5,23.7c0.1,3.2,0.2,6.4,0.5,9.6c0.7,7.9,1.5,15.7,2.4,23.6c1.2,10.7,3.3,21.3,5.7,31.8
		c3.5,15.4,8.1,30.4,13.6,45.2c6.7,17.8,14.7,34.9,24.1,51.4c7.6,13.4,16.1,26.3,25.4,38.6c8.4,11.1,17.3,21.8,27,31.7
		c7.1,7.3,14.4,14.3,21.9,21.2c5.9,5.4,12,10.6,18.2,15.5c10.4,8.3,21.4,16,32.7,23c14.7,9.1,29.9,17.2,45.8,24.1
		c14.3,6.2,29,11.5,43.9,15.8c13.1,3.8,26.4,6.9,39.9,9c7.3,1.2,14.7,2.1,22.1,3c6.8,0.8,13.7,1.4,20.5,1.7
		C402.4,759.6,408.3,759.4,414.3,759.4z" class="coloref67a7 svgShape"></path><path fill="#333436" d="M422.2,247.8c0-7.4,0.1-14.9,0.1-22.3c0-0.8,0-1.6,0-2.4c0.3-3.1,2-5,5-5.6c1-0.2,2.1-0.3,3.1-0.3
		c5.7,0.2,11.4,0.2,17,0.6c12.6,0.8,25.2,1.6,37.8,2.5c11,0.8,21.6,3.2,32.1,6.4c1.1,0.3,2.2,0.9,3.2,1.6c2.8,1.9,5.5,3.9,7.4,6.7
		c0.9,1.3,1.5,2.8,2.1,4.3c0.3,0.7,0.2,1.6,0,2.3c-0.8,2.1-0.2,4,0.9,5.8c4.2,6.8,8.3,13.7,12.4,20.5c0.3,0.5,0.6,1.2,1,1.6
		c1.7,1.8,1.1,4.5,3.1,6.3c1.7,1.5,3.1,3.7,4.2,5.7c1.5,2.8,2.8,5.7,4.1,8.6c1.2,2.7,2.2,5.5,3.1,8.3c0.6,1.6,1,3.2,1.4,4.8
		c0.5,2.3,0.9,4.5,1.2,6.8c0.2,1.1,0.2,2.2,0.2,3.3c0,11.8,0,23.7,0,35.5c0,1.7,0.1,3.1,1.9,4c0.5,0.2,0.9,0.7,1.3,1.1
		c3.6,3,4.6,8.4,2.4,12.5c-1.5,2.7-3.5,4.2-6.9,4.3c-10.9,0.1-21.7,0.5-32.6,0.8c-0.5,0-1,0-1.4,0c-3.4-0.1-5-1.5-5.1-5
		c-0.3-8.9-3.2-16.9-8.3-24.1c-3.8-5.3-8.6-9.5-14.4-12.7c-6.8-3.8-14-5.7-21.7-5.7c-9.4,0-17.9,2.9-25.6,8.3
		c-5.7,4-10.2,9-13.4,15.1c-2.7,5.2-4.6,10.7-5,16.6c-0.1,1.7-0.2,3.5-0.4,5.2c-0.1,1.8-0.9,3.2-2.7,3.8c-1.8,0.6-3.4,0.2-4.6-1.2
		c-0.8-1-1.6-1-2.7-0.8c-7.3,1.5-14.5,3.1-21.9,4.3c-14.1,2.2-28.2,4.1-42.4,4.2c-9.4,0.1-18.7,0.5-28.1,0.7c-1.3,0-2.7,0-4-0.3
		c-2.4-0.5-3.6-1.9-3.7-4.3c0-0.6,0-1.3,0.1-1.9c0.7-3.9,0.3-7.8-0.2-11.7c-0.5-3.9-1.8-7.6-3.5-11.1c-2.8-5.6-6.5-10.6-11.3-14.6
		c-4.7-3.9-9.9-6.6-15.8-8.3c-4.1-1.2-8.3-1.8-12.5-1.7c-10.1,0.3-19.2,3.7-26.9,10.4c-5.8,5-10,11.1-12.7,18.2
		c-1.6,4.2-2.2,8.6-2.4,13.1c0,0.5,0,1-0.1,1.4c-0.3,2.7-2.1,4.3-4.7,4.1c-2.9-0.3-5.7-0.7-8.5-1.2c-3.8-0.7-5.7-4.6-5.3-8
		c0.2-1.5,0.8-3.1,1.5-4.5c2.7-5.2,4.6-10.5,4.9-16.4c0-0.5,0.2-1,0-1.4c-0.7-2.1-0.5-4.1-0.1-6.2c0.5-3.3,0.4-6.5-0.4-9.7
		c-0.2-1-0.3-2-0.5-3.1c-5.1-0.1-9.1-2.4-12.5-5.9c-6.1-6.4-6.8-14.1-2.1-21.7c3.2-5.2,7.9-8.9,13.3-11.3c8-3.6,16.4-4.6,25.1-3.4
		c1.5,0.2,2.9,0.6,4.6,1c-2-5.6-4-10.9-5.9-16.2c-0.3-0.8-0.8-1.4-1.7-1.4c-5.4-0.1-9.1-3.1-12.3-6.9c-3.8-4.6-3.9-9.8-1.5-15.1
		c1.6-3.4,3.9-6.3,6.9-8.5c6.1-4.4,12.8-6.8,20.4-6.7c2.9,0,5.9,0.2,9,0.4c0.2-2.2-0.2-4.3-0.7-6.4c-0.9-3.6-2-7.2-3.1-10.8
		c-0.2-0.5-0.7-1.1-1.3-1.2c-6-1.9-8.9-9.9-7.6-14.9c0.8-3.2,2.4-6.1,3.6-9.1c0.3-0.8,1-1.5,1.7-2c1.6-1.3,3.3-2.5,5.1-3.6
		c1.7-1.1,3.5-2.1,5.7-3.4c0-1.7-0.1-3.8,0-5.9c0.6-10.6-0.2-21.1-0.4-31.7c-0.3-12-0.6-24-0.7-36c-0.1-3.9,0.9-5,4.6-6.2
		c1.3-0.4,2.6-0.8,3.9-1.2c2.9-1,5.5-0.3,8,1.3c2.3,1.5,4.1,3.6,5.6,5.9c2.8,4,5,8.4,6.8,12.9c3.4,8.6,6.6,17.3,9.9,26
		c0.2,0.6,0.4,1.2,0.8,2.2c0.7-2.3,1.3-4.1,1.9-6c3.5-11.4,7.1-22.9,9.6-34.6c0.2-0.9,0.3-1.7,0.4-2.6c0.4-3.2,2.2-5.5,5.2-6.7
		c3.9-1.6,7.9-2.3,12.2-1c4,1.2,5.9,3.6,6.1,7.8c0.8,15.2,1.8,30.5,2.7,45.7c0.2,4,0.5,8,0.7,12c0.1,1.1,0.2,2.2,0.3,3.8
		c3.2-3,6.5-4.9,10.6-5.1c4-0.2,7.6,0.8,11,3.5c0.7-1.9,1.3-3.6,2-5.2c0.3-0.9,0.6-1.8,1.1-2.6c0.9-1.5,1.8-1.8,3.4-1.5
		c1.8,0.4,2.6,1.4,2.8,3.1c0.2,1.5-0.2,2.8-1,4.1c-1.5,2.2-2.9,4.6-4.4,6.9c1.9,3.6,1.9,7.4,1.3,11.5c0.7-0.1,1.3-0.1,1.9-0.2
		c4.4-0.7,8.6-0.3,12.4,2.3c5.8,3.9,6,11.1,0.3,15.2c-1.4,1-2.1,2.3-2.9,3.8c-2,4.3-2.4,8.8-2.4,13.3c-0.1,5,0.1,10.1,0.2,15.1
		c0,0.3,0.1,0.6,0.2,1.2c1.6,0.1,3.1,0.3,4.7,0.3c6.5-0.2,12.6,1.9,18.6,4.1c2.8,1.1,5.1,3,7.1,5.2c2.9,3.2,5.2,6.7,6.3,10.9
		c0.6,2.6,0.8,5.1,0,7.7c-1.1,3.2-3.2,5.6-6.2,7.2c-1,0.5-2,1-3,1.5c-0.4,0.1-0.8,0.2-1.2,0.3c-0.2,0-0.5,0.1-0.7,0.1
		c-0.9,0-1.9,0-2.8,0c-0.2,0-0.5-0.1-0.7-0.1c-0.4-0.1-0.8-0.2-1.2-0.3c-1-0.6-1.2,0.1-1.5,0.8c-1.2,3.3-2.4,6.6-3.6,9.9
		c-1.6,4.3-3.1,8.7-4.6,13c-0.6,0.7-0.5,1.1,0.5,1c1.2,0.1,2.4,0.1,3.6,0.2c0.4,0.1,0.8,0.2,1.2,0.3c6.8,1.2,13.7,2.2,20,5.5
		c0.7,0.6,0.8,0.6,1-0.1c0-0.9,0.1-1.7,0.1-2.6c0-11.4,0-22.8,0-34.1c0-0.9-0.1-1.7-0.1-2.6C422.2,252.9,422.2,250.4,422.2,247.8z
		 M238.6,346.6c1.7-2.5,3.5-5,5.2-7.6c0.2-0.1,0.4-0.2,0.6-0.4c8.4-9.6,19-15,31.5-16.2c10.7-1.1,20.7,1.6,29.8,7.4
		c4.5,2.8,8.4,6.3,11.5,10.5c1.9,2.6,3.6,5.4,5.4,8.2c0.1,0.2,0.3,0.4,0.4,0.6l0,0c0.3,0.8,0.6,1.6,1,2.3c0.1,0.4,0.2,0.8,0.3,1.1
		c2.8,7.3,3.7,14.7,2.8,22.4c0,0.4,0,0.8,0,1.3c1.3,0,2.6,0,3.9,0c10.7-0.3,21.4-0.6,32-0.9c4.6-0.2,9.2-0.4,13.8-0.9
		c11.4-1.2,22.8-2.7,34.1-4.9c3.4-0.7,6.9-1.5,10.3-2.2c0.9-0.2,1.6-0.4,1.1-1.6c0-3.4,0-6.8,0-10.2c0-0.3,0-0.6,0-0.9
		c0-0.6,0-1.2,0-1.9c0.3-2.3-0.1-4.4-1.3-6.4c-0.4-0.7-0.9-1.6-1-2.4c-0.5-4.2-0.9-8.4-1.3-12.6c-0.1-1.5,0.8-2.6,2.3-3
		c0.4-0.1,0.9-0.2,1.3-0.3c0-9.3,0-18.4,0-27.5c-3.5-2.2-7.1-4.1-11.1-5.1c-5.8-1.4-11.6-2.2-17.5-2.4c-3.1-0.1-4-1.6-2.9-4.4
		c2.4-6.3,4.7-12.6,7.1-18.8c0.9-2.4,1.7-4.8,2.6-7.2c1-2.7,3.2-4.2,5.5-3.2c2.7,1.2,5.1,0.6,7.5-0.8c3.3-2,4.8-4.9,4.1-8.7
		c-1.3-6.5-5-11.3-10.8-14.2c-3.8-1.9-8-3.3-12.4-3.6c-3.4-0.3-6.9-0.4-10.3-0.6c-1.1-0.1-2.2-0.5-3.2-0.7
		c-1.4-7.8-1.3-15.6-0.6-23.4c0.2-2.6,0.6-5.2,1.2-7.8c0.6-2.4,1.5-4.7,2.3-7c1.1-0.7,2.1-1.4,3.2-2.1c3.6-2.5,3.4-6.2-0.3-8.5
		c-2.8-1.8-5.9-2-9-1.4c-4.5,0.9-9.1,1.9-13.5,3.1c-6.6,1.9-13.2,4-20,4.5c-2.6,0.2-5,0.5-7.4,1.5c-0.4,0.1-0.8,0.2-1.2,0.2
		c-4.2-0.1-8.3-0.3-12.4-0.4c-1.3,0-2.5-0.1-3.8-0.3c-1.6-0.1-3.3,0-4.5-1.3c-1.3-1.3-2.9-1.8-4.7-2.3c-1.4-0.3-2.8-0.6-4.2-1.1
		c-8.1-2.7-16.3-4.4-24.8-5.1c-4.9-0.4-9.4,0.3-13.4,3.2c-1.5,1.1-3,2.1-4.5,3.2c-0.6,0.5-1,1.2-1.4,1.9c-0.4,0.8-0.8,1.6-1.1,2.4
		c-0.6,1.6-1.3,3.1-1.7,4.7c-1,4.4,1.2,8.3,5.3,10c1.1,0.5,2.1,1.2,3.1,1.8c0.3,1.3,0.5,2.7,0.8,4c0.7,2.5,1.7,5,2.2,7.5
		c1,4.6,1.9,9.2,1.6,13.9c-1.2,0.7-2.5,0.8-3.7,0.3c-2.8-1.1-5.8-1.1-8.7-1.2c-6.3-0.3-12,1.4-17.3,4.7c-3.4,2.1-6,5-7.6,8.7
		c-1.3,3.1-1.4,6.2,0.7,8.9c2.5,3.4,5.4,6.2,10.2,6.3c2.5,0,4.2,1.4,5.1,3.9c2.3,6.6,4.9,13.2,7.4,19.8c0.2,0.4,0.3,0.9,0.5,1.4
		c0.3,1.3,0.1,1.7-1.2,2.1c-1.7,0.5-3.3,0-4.9-0.5c-1.7-0.6-3.5-1.2-5.3-1.5c-4-0.8-8-0.4-11.9,0.1c-7.7,0.9-14.2,4-19.6,9.6
		c-1.8,1.9-3.3,4.1-4.1,6.7c-0.7,2-1,4-0.5,6.1c1.4,6.2,7.4,11.1,13.8,11.1c2.4,0,3.5,1,3.7,3.4c0.2,1.9,0.5,3.8,0.7,5.7
		c0.3,2.2,0.6,4.4,0.2,6.7c-0.3,1.8-0.3,3.7-0.4,5.5c0.4,0.2,0.9,0.4,1.3,0.6c-1.2,5.1-2.3,10.2-3.4,15.3c-0.9,1.8-1.8,3.5-2.7,5.3
		c-0.5,1.1-1.1,2.1-1.4,3.3c-0.5,1.9,0.5,3.8,2.3,4.1c2.4,0.4,4.9,0.6,7.4,0.9c0.3-2.6,0.5-5,0.8-7.4c0.7-4.9,2.4-9.6,4.5-14.1
		C238.1,347.6,238.4,347.1,238.6,346.6z M371,165.7c1.1-1.8,2.1-3.6,3.2-5.3c0.9-1.4,1.8-2.8,2.7-4.2c0.6-1.1,0.4-2.3-0.4-2.7
		c-1-0.5-2,0.1-2.5,1.6c-0.9,2.5-1.7,5.1-2.7,7.6c-0.2,0.6-0.8,1.1-1.2,1.7c-0.4-0.3-0.9-0.7-1.3-1c-3.9-3.6-8.3-4.7-13.2-2.8
		c-8.5,3.2-11.6,14-4.8,21c1.1,1.1,2.1,1.3,3.6,0.9c5.2-1.5,10.4-3,15.6-4.4c1.5-0.4,2-1.2,2.4-2.5
		C373.5,171.9,372.5,168.8,371,165.7z M557,319c0.1,0,0.2,0,0.3-0.1c0-0.4,0.1-0.8,0.1-1.1c0.5-4.5-0.6-8.9-1.3-13.3
		c-0.3-1.6-0.8-3.2-1.4-4.8c-0.6-1.7-1.6-3.3-2.1-5.1c-1.4-4.9-3.5-9.4-6.3-13.6c-1.2-1.7-2.5-2.6-4.5-2.4c-0.6,0-1.1,0-1.7,0
		c-30.2-0.1-60.3-0.3-90.5-0.5c-1.1,0-2.2-0.2-3.2-0.6c-3.8-1.5-5.3-4.8-5.5-8.5c-0.3-3.3,0-6.6,0-9.8c0-3.4,0-6.7,0-10.1
		c0-2.5,0.9-4.8,3-5.9c2-1.1,4.2-2,6.6-1.9c4.6,0.1,9.3,0.2,13.9,0.3c5.8,0.1,11.7,0.2,17.5,0.3c14.2,0.2,28.5,0.5,42.7,0.7
		c0.6,0,1.2-0.1,1.9-0.1c0-0.5,0.1-0.8,0-1.1c-2.1-5.3-6-8.9-11.2-10.8c-6.5-2.4-13.3-3.6-20-4.7c-4.9-0.8-9.8-1.3-14.8-1.6
		c-11.6-0.8-23.3-1.4-34.9-2c-4.9-0.3-9.9-0.4-14.8-0.6c-3.4-0.2-4,0.4-4,3.8c0,0.1,0,0.2,0,0.2c0,46,0,92,0,138c0,0.6,0,1.3,0,1.9
		c0.1,1,0.4,1.9,1.4,2.5c0.9-27.9,22.4-46.8,46.6-48.2c23.5-1.3,50,16.6,51.4,47.5c0.9,0,1.7,0,2.6,0c5-0.1,10.1-0.3,15.1-0.4
		c5.6-0.2,11.2-0.3,16.8-0.5c0.7,0,1.5-0.2,1.9-0.6c2.3-2,2.1-6.3-0.2-8.3c-1.4-1.3-3-2.1-5-2.4c0-8.2,0-16.3,0-24.9
		c-1,1.4-1.7,2.3-2.4,3.2c-0.3,0.3-0.7,0.7-1.1,0.8c-1.7,0.4-3.9-0.9-4.7-2.5c-2.4-4.7-1.8-9.5-0.3-14.2c0.5-1.4,2.7-3,4.1-3
		c1.5,0,3.1,1.4,3.7,3.2C556.7,318.1,556.9,318.6,557,319z M329.3,126.4c0.1,0,0.3,0,0.4,0c0.1,4.2,0.3,8.5,0.4,12.7
		c0.3,13.9-0.1,27.8,0.9,41.7c0.2,2.6,1.1,3.6,3.8,3.4c0.9,0,1.7-0.1,2.6-0.2c4.3-0.2,7.3-3.2,7.2-7.6c-0.2-5.8-0.5-11.7-0.8-17.5
		c-0.5-8.7-1.1-17.4-1.6-26.1c-0.6-10.8-1.2-21.5-1.8-32.3c-0.1-2.3-0.8-3.4-3-4c-3.4-1-6.7-0.5-9.8,1.1c-1.2,0.6-1.9,1.6-2.1,3
		c-0.2,1.5-0.5,3-0.9,4.5c-2.9,12.7-6.7,25.1-10.6,37.6c-1.5,4.7-3,9.4-4.5,14.1c-0.7-0.8-1.1-1.7-1.3-2.6
		c-4.1-13.4-8.7-26.6-14.5-39.3c-1.7-3.8-3.9-7.5-6.1-11.1c-0.9-1.5-2.3-2.6-3.6-3.8c-1-0.9-2.3-1.5-3.8-1c-2,0.6-4,1.2-5.9,1.8
		c-0.1,0.4-0.2,0.7-0.1,1.1c0.2,11.9,0.4,23.8,0.7,35.7c0.3,10.9,1.2,21.7,0.4,32.6c-0.1,1.6,0,3.2,0,4.8c4.6,0.3,9,0.6,13.7,0.9
		c-0.5-8.7-0.9-17.4-1.4-26c-0.5-8.7-1.2-17.4-0.9-26.6c0.4,0.6,0.6,0.7,0.7,0.9c4.2,11.4,8.5,22.8,12.7,34.2
		c0.4,1.2,0.4,2.5,0.7,3.7c0.4,1.9,0.7,3.8,1.4,5.5c1.1,2.5,3.2,3.7,5.9,3.7c2.8,0,5.2-1.1,6.6-3.6c1.3-2.3,2.4-4.7,3.2-7.2
		c1.9-5.7,3.4-11.5,5.3-17.2C325,137.7,327.2,132.1,329.3,126.4z M505.7,274c-3.8-9.3-7.6-18.4-11.3-27.5
		c-7.7-0.1-15.1-0.3-22.6-0.4c-0.2,9.4-0.4,18.6-0.7,27.9C482.7,274,494,274,505.7,274z M467.5,245.7c-5.1,0-9.8,0.1-14.5,0
		c-1.9,0-3.6,0.1-5.4,0.7c-1.8,0.6-2.2,1-2.3,2.9c-0.1,6.5-0.3,13-0.1,19.4c0.2,3.7,2.1,5.4,5.4,5.3c4.6-0.2,9.3,0,13.9,0
		c0.7,0,1.4-0.1,2.3-0.1C467,264.5,467.3,255.3,467.5,245.7z M293.3,177.1c1.4,0.3,2.7,0.5,3.9,0.9c4.9,1.3,9.8,2.7,14.8,4
		c1.8,0.5,3.5,1.1,5,2.3c0.5,0.4,1.3,0.7,1.9,0.7c1.9,0.2,3.8,0.4,5.7,0.5c0.9,0.1,1.9,0.1,2.7,0.1c-0.2-2.4-0.5-4.6-0.5-6.8
		c-0.3-8.9-0.5-17.7-0.8-26.6c0-0.8,0-1.6,0-2.4c-0.6,0.6-0.8,1.2-1,1.7c-1.2,4.1-2.4,8.3-3.7,12.4c-0.9,2.8-2,5.4-4,7.6
		c-2.9,3.3-6.6,4.7-10.9,4c-4.7-0.7-7.6-3.5-9-7.9c-0.5-1.7-0.8-3.4-1-5.2c-0.6-4.5-2.7-8.6-4.1-12.8c-0.2,0-0.3,0.1-0.5,0.1
		C292.2,158.8,292.7,167.9,293.3,177.1z M510.4,274.1c5.3,0,10.5,0,16.1,0c-5.3-9.3-10.4-18.3-15.6-27.4c-3.9,0-7.7,0-11.7,0
		C502.9,255.8,506.6,264.9,510.4,274.1z M542.7,274.1c-0.1-0.4-0.1-0.6-0.2-0.8c-4.9-8.4-9.8-16.8-14.7-25.2c-0.6-1-1.4-1.2-2.4-1.2
		c-2.6,0-5.1-0.1-7.7-0.1c-0.5,0-1,0.1-1.8,0.1c5.3,9.3,10.4,18.3,15.5,27.1C535.3,274.1,539,274.1,542.7,274.1z M553.3,317.7
		c-1.1-0.1-1.7,0.4-1.9,1.3c-0.3,1.2-0.6,2.3-0.8,3.5c-0.6,2.6-0.1,5.1,1,7.4c0.2,0.5,0.9,0.9,1.6,1.7c0.7-1.7,1.5-2.9,1.5-4.2
		c0.2-2.8,0.2-5.6-0.8-8.3C553.7,318.6,553.5,318.2,553.3,317.7z M348.9,183.4c-0.9-1-0.9-1-1.8,0.2
		C347.8,183.5,348.3,183.4,348.9,183.4z" class="color333436 svgShape"></path><path fill="#ffffff" d="M97.3,468.7c-4.3-0.6-8.4-1.3-11.9-3.5c-1.6-1-3.2-2.2-4.5-3.5c-1.4-1.3-1.4-2.2-0.1-3.5
		c2.8-3.1,6-5.5,10.1-6.6c1.7-0.4,3.1-0.3,4.6,0.5c1.8,0.9,3.6,1.7,5.4,2.5c0.5,0.2,1.1,0.3,1.6,0.4c1.3,0.3,2.2-0.1,2.9-1.4
		c3-5.4,6.1-10.7,9.3-16c6.3-10.3,13.3-20.2,20.9-29.5c1.5-1.8,3.3-3.1,5.5-3.7c0.8-0.2,1.9-0.2,2.5,0.2c3.9,2.8,6.8,6.2,7.2,11.3
		c0.2,2.9-0.8,5.3-2.8,7.4c-3.3,3.6-6.6,7.2-9.8,10.8c-5.7,6.4-10.6,13.4-14.9,20.8c-0.1,0.2-0.1,0.4-0.3,0.9c0.5,0.1,1,0.2,1.4,0.1
		c10.8-0.4,21.5-1.9,31.5-6.3c7.6-3.4,14.3-7.9,19.1-14.8c3.6-5.1,6-10.7,6.1-17.1c0.1-5.5-2.2-9.7-6.6-12.8
		c-4.1-2.9-8.7-4.3-13.7-4.7c-15.1-1.2-29.5,1.6-43.6,7.2c-11.8,4.7-22.6,11.2-32.7,18.9c-1.5,1.2-3,2.4-4.6,3.4
		c-2,1.3-3.8,1.3-5.3,0c-1.2-1.1-1.6-2.5-1.7-4.1c-0.3-5,1.5-9.5,3.9-13.6c4.1-7.1,10.1-12.1,17.1-16.1c8.1-4.6,16.9-7.2,25.9-9.1
		c7.7-1.6,15.6-2.7,23.5-3c4.9-0.2,9.8-0.5,14.6-0.4c8.7,0.3,17.1,1.9,25.1,5.4c7.9,3.5,13.6,8.9,15.8,17.5c1.4,5.2,1,10.5-0.3,15.6
		c-1.9,7.7-5.6,14.6-10.8,20.6c-11,12.5-24.7,20.2-40.9,23.9c-5.8,1.3-11.6,2.2-17.5,2.5c-4,0.2-8,0.4-12,0.5c-1.3,0-2,0.5-2.5,1.7
		c-2.5,6.3-4.2,12.7-5.1,19.4c-0.9,6.8-0.6,13.5-0.3,20.3c0.1,1.7-0.1,3.3-1.3,4.7c-1.7,2.1-3.9,2.8-6.4,2.1
		c-3.1-0.8-5.7-2.5-7.6-5.1c-4.6-6.1-5.7-12.9-4.6-20.2c1.3-7.9,3.8-15.3,7.2-22.5C96.9,469.7,97.1,469.3,97.3,468.7z" class="coloref65a7 svgShape"></path><path fill="#ffffff" d="M494.7 475.1c-3.6 2.4-7.1 4.9-11.2 6.4-2.2.8-4.4 1.5-6.7 1.9-1.4.3-2.2.9-2.9 2.1-2.2 4.2-4.3 8.4-6.8 12.4-3.8 6.2-8.3 12-14.4 16.2-3.7 2.6-7.6 4.2-12.3 3.9-5.1-.4-9-2.5-11.5-7.1-2-3.5-3-7.2-3.2-11.2-.4-6.2.2-12.3 1.9-18.3 2.2-7.7 5.2-14.9 10-21.4 2.8-3.8 6-7 10.3-9.2 3.7-1.9 7.3-2.1 11-.1.2.1.4.2.7.3.1 0 .2 0 .4 0 2.1-1.7 4.6-3.3 7.6-3.5 4.4-.3 8.3 1.5 10.1 5 2.4 4.4 2.6 9 2.1 13.7-.3 2.8-.8 5.6-1.3 8.9 1.1-.3 1.9-.5 2.6-.8 5.2-1.9 9.6-5.1 13.7-8.6.2-.2.5-.4.7-.6 1.8-1.5 2.3-1.4 3.9.4 1-1.5 1.6-3.1 1.8-4.9.3-2.4.7-4.7 1-7.1.4-2.7 1.8-4.5 4.3-5.5 5.3-2.1 10.8-2.8 16.4-2.5 2.3.1 3.4 1.5 3.1 3.9-.2 1.4-.7 2.8-1.2 4.1-2.4 6.1-3.5 12.4-4.1 18.9-.7 7.4.8 14.5 1.8 21.6.7 4.5.9 9-.1 13.6-1.7 7.3-5.9 11.9-13.4 13.3-4.9.9-9.7 1-14.4-.7-8.6-3.3-8.6-10.8-5.3-16.9 1.4-2.6 5.9-2.5 7.5.1.3.5.3 1.3.2 2 0 .4-.4.7-.5 1.1-.7 2-.2 3.7 1.3 4 2.2.5 4 .5 4.4-2.2.4-2.6.4-5.4.2-8.1-.5-5.5-1.2-10.9-1.8-16.4-.1-.6-.3-1.2-.5-2.2-.5.7-.8 1-1.1 1.5-1.3 2.2-2.6 4.4-4 6.6-.2.4-.5.8-.8 1.2-.8.9-1.6 1.6-2.9 1.3-1.2-.3-2.4-2.1-2.2-3.4.1-.8.4-1.5.7-2.3 1.5-3.1 3-6.2 4.4-9.3.3-.6.5-1.3.7-2 .1-.2.1-.5.2-.7C495 474.8 494.8 475 494.7 475.1zM453.6 465.9c-.2-.1-.4-.1-.6-.2-1 1.4-2.1 2.7-3 4.2-4.6 8.1-7.5 16.9-9.8 25.9-.8 3.1-.8 6.2.4 9.2.9 2.2 2 3.1 4.4 2.9 1.2-.1 2.5-.4 3.6-1 1.4-.8 2.8-1.9 4-3 5-4.9 8.2-11 11.1-17.2.5-1.1 1-2.3 1.5-3.6C457.2 480.1 453.6 474.2 453.6 465.9zM467.9 475.7c1.6-4.2 2.5-8.5 2-13-.1-.5-.4-1-.8-1.5-1.9-2.2-5.2-1.6-6.6 1.4C459.7 468.5 462.8 474.3 467.9 475.7zM225.4 500.4c2.6-2.3 4.7-4.4 7-6.2 4.3-3.5 8.7-7 13.1-10.4.7-.5 1.5-.9 2.3-1.3 2-1.2 3.7.9 3.5 2.7-.3 1.9-1.3 3.2-2.8 4.3-2.4 1.8-4.8 3.5-7 5.5-5.8 5.3-11.6 10.8-16.5 17.1-.7 1-1.1 1.9-1 3.1.4 4 .8 7.9 1.2 11.9 1.3 11.6.6 23-3.2 34.1-1.4 4.1-3.6 8-6.7 10.9-6.7 6.3-14.6 7-22.3 1.9-3.9-2.6-4.6-7-4.2-11.4.8-8.2 3.7-15.7 7.4-22.9 3.7-7 7.9-13.7 12.6-20.1.5-.6.9-1.4.9-2.1-.2-4.3-.4-8.5-.7-13.1-.5.5-.7.9-1 1.2-3 2.9-5.8 6-9 8.6-4.2 3.3-9.2 4.4-14.5 3.1-3.1-.8-5.5-2.4-7-5.4-1.2-2.5-2-5-2-7.8-.1-6.1 1-11.9 2.9-17.7 2-6.2 4-12.5 6.2-18.6 2.1-5.8 4.3-11.5 6.6-17.2.3-.8.9-1.5 1.4-2.2 1-1.2 2.2-1.4 3.7-.9 2.8 1 5.4 2.5 7.7 4.3 3.5 2.7 3.2 6.1 1.8 8.7-1.9 3.7-3.8 7.4-5.4 11.2-3.5 8.5-6.8 17.1-8.6 26.1-.3 1.5-.1 3.2.3 4.7.5 2.2 2.9 3.3 4.9 2.3 1.5-.7 2.9-1.7 4-2.9 4.3-4.8 7.6-10.3 10.2-16.2 3.3-7.6 6.4-15.3 9.6-23 1.2-2.8 2.6-5.5 4-8.2.2-.4.5-.8.8-1.2 1.6-2 2.5-2.3 4.7-1.3 3.2 1.4 6.2 3.3 8.8 5.7 2 1.9 2.5 4.4 1.2 7.3-1.4 3-3.1 5.8-4.6 8.7-2.9 5.5-5.9 11-7.9 16.9-.7 2.2-1.3 4.4-1.9 6.7C225.7 498.1 225.6 499 225.4 500.4zM212.2 530.4c-.5.6-.7.8-.8 1-4.4 6.7-8.2 13.7-11.5 21-1.7 3.7-2.6 7.7-2.2 11.9.2 2.4 1.7 4.3 3.8 4.6 2.7.4 5.2 0 7.5-1.7 1.8-1.4 2.9-3.1 3.7-5.2 1.1-2.8 1.7-5.9 1.7-8.9 0-4.3-.1-8.6-.5-12.9C213.7 537.1 212.9 534 212.2 530.4zM368.2 482.6c1.4-2.1 2.9-4.2 4.3-6.3 4.6-6.8 9.3-13.4 15.3-19 2-1.8 4.2-3.4 6.4-5 2.6-1.8 5.5-2.1 8.4-.5 2.5 1.4 5.1 2.7 7.3 4.4 3.5 2.8 4 5.2 1.9 9.2-1.5 3.1-3.3 6-4.9 9.1-3.2 6.1-6.4 12.3-8.2 19.1-.6 2.1-.7 4.2-.9 6.4-.3 3.4 2.4 4.5 5.1 3.3 1.4-.6 2.9-1.6 3.9-2.7 2.2-2.4 4.2-5 6-7.7 1.7-2.6 3.1-5.4 4.6-8.1 1.1-2 2.8-3 4.9-2.6 1.3.2 2 .9 2 2.3 0 .9-.2 1.8-.6 2.5-4.2 8.3-9.1 16.2-15.2 23.2-1.1 1.3-2.3 2.4-3.6 3.6-4.2 3.9-9.3 4.7-14.8 3.7-4.4-.8-7-3.7-8-8-.9-4.1-.8-8.2-.4-12.4 1-9.1 4.3-17.6 7.5-26.2.4-1 .6-2.1.9-3.2.1-.1.1-.1.2-.2 0 .1-.1.1-.1.2-3.8 3-6.7 6.8-9.7 10.6-9.4 12.3-16.7 25.7-22 40.2-.7 2-1.2 2.2-3.4 2-3-.3-5.6-1.3-7.9-3.2-1.8-1.5-2.7-3.2-2.4-5.8 1.1-11 3.8-21.7 7.2-32.2 2.8-8.7 6.3-17.2 9.6-25.8.5-1.4 1.1-2.8 1.7-4.2 1.1-2.4 2.5-3 5-2 2.9 1.1 5.7 2.5 7.9 4.8 2.5 2.6 2.9 4.2 1.4 7.5-1.3 2.8-2.8 5.4-4 8.2-1.9 4.3-3.6 8.7-5.4 13.1-.2.5-.2 1.1-.3 1.6-.1.3-.1.5-.2.8C368 483 368.1 482.8 368.2 482.6zM315.6 460.8c-3.5-.8-6.3-2.1-9.6-1.5-1.5.3-3-.5-3.4-1.7-.5-1.4-.4-2.9.7-4.1 1.4-1.6 3.2-2.7 5.4-2.7 4.2-.1 8.5-.2 12.7-.1 2.4.1 4.8.5 7.1 1.1 1.4.4 2.9 1.3 3.8 2.3 2.4 2.9 4.2 6.2 4.9 10 .5 2.7-.1 3.5-2.6 4.4-7.2 2.5-13.8 6.3-19.9 10.9-.2.2-.4.5-.4.5 1.2 3.9 2.5 7.6 3.5 11.4 1 3.7 1.7 7.4 2.7 11.4 1.3-1.1 2.3-2.1 3.4-3 6-5.8 12.4-11 19.1-16 .8-.6 1.6-1.1 2.5-1.4 2.2-.8 3.8.6 3.4 2.9-.3 1.8-1.4 3-2.7 4.1-2.2 1.6-4.4 3.2-6.4 5-6.1 5.4-12 11.1-17 17.6-.7.9-.9 1.7-.8 2.8.3 2.2.5 4.4.7 6.7.3 4 .8 8 .9 11.9.2 8.8-.4 17.6-3.2 26-1.5 4.7-3.8 9.1-7.4 12.4-5.5 5.1-11.2 6.5-18.3 4-6-2.1-8.8-6.8-8.1-13.8 1-9.8 5-18.5 9.8-26.8 3.1-5.4 6.7-10.5 10.1-15.7.6-.9 1.1-1.7.9-2.9-1.4-9.5-2.6-19-4-28.4-.5-3.3-1.3-6.6-2.2-9.8-.4-1.7-.2-3.3.6-4.9 1.6-3.2 4.3-5.6 7-7.8C310.7 464.1 313 462.7 315.6 460.8zM308.1 533c-.4.5-.6.8-.8 1-3.3 6.1-6.8 12.1-9.9 18.3-1.8 3.6-2.6 7.5-2.3 11.6.2 2.6 1.6 4.5 3.8 5 2.8.6 4.8-.3 6.1-2.9.3-.6.5-1.2.7-1.8 1.5-4 2.2-8.2 2.3-12.4.2-5.8.1-11.7.1-17.5C308.2 534 308.2 533.7 308.1 533zM263 481.7c-.6.8-.9 1.2-1.2 1.7-1.3 2.2-2.6 4.4-4 6.6-.2.4-.5.8-.8 1.2-.8.8-1.6 1.6-2.9 1.2-1.1-.3-2.3-2-2.1-3.2.1-.8.4-1.7.8-2.5 3-6.5 6-13.1 9.1-19.6 1.5-3.2 2.3-6.6 2.7-10.1.1-1.5.5-3 .8-4.5.3-1.9 1.4-3.3 3.2-3.9 2.6-.9 5.3-1.9 8-2.4 2.8-.5 5.7-.5 8.6-.5 3.1 0 4.3 1.7 3.7 4.7-.2 1.1-.6 2.2-1 3.2-2.5 6.3-3.6 12.9-4.2 19.6-.6 6.1.4 12.1 1.4 18.1.7 4.9 1.5 9.8.7 14.8-1.2 8-6 14.4-15.4 15.4-4.5.5-8.9.5-13.2-1.2-3.5-1.5-6.2-3.8-6.7-7.8-.4-3.1.2-6.1 1.8-8.8 1.6-2.7 6-2.7 7.6 0 .3.5.3 1.2.2 1.8 0 .4-.4.9-.6 1.3-.7 2-.1 3.5 1.4 4 2.2.7 3.8 0 4.4-2.1.3-1.2.5-2.5.4-3.8-.3-4.5-.8-9.1-1.2-13.6-.2-2.3-.5-4.6-.8-6.9C263.4 483.7 263.2 482.9 263 481.7zM579.4 471.3c0-.9 0-1.8 0-2.8-.2-3.4-2.8-5.1-5.8-3.8-1.4.6-2.6 1.5-3.7 2.5-3.2 2.9-5.6 6.4-7.6 10.1-3.2 5.9-6.6 11.7-7.9 18.4-.4 2.3-.5 4.8-.2 7.1.6 4.4 3.7 6.8 8.7 6.9 5.9.2 11.1-1.8 15.7-5.5 5.2-4.1 9.1-9.2 12.3-14.8.9-1.6 1.8-3.2 2.6-4.9.7-1.4 1.9-2.2 3.3-2.5 2.1-.5 3.6 1.1 3.1 3.2-.2.7-.4 1.4-.8 2-3.5 6.4-6.5 13.1-11.4 18.5-5.1 5.7-10.6 10.9-18.2 13.1-7 2.1-14.1 1.7-20.9-.8-7.5-2.7-11.5-8.8-11.8-16.7-.2-6.3 1.4-12.2 3.5-18 2.6-7.2 5.7-14.1 10.7-20 3.7-4.5 7.9-8.4 13.4-10.7 4.5-1.9 9.1-2.3 13.8-.9 3.2.9 5.4 3 6.6 6.1 1.1 2.9 1.4 5.9 1 9C585 470.1 582.8 471.6 579.4 471.3zM599.3 502.7c.2-6.6 1.9-12.8 3.7-19 3-10.1 7.3-19.8 11.9-29.3.4-.8 1-1.4 1.6-2.1.9-1.2 2.1-1.4 3.4-.9 3.9 1.6 7.4 3.8 10.2 6.9 1.5 1.6 1.4 3.6.7 5.4-.8 2-1.8 3.9-2.9 5.8-3.6 6.6-7.1 13.2-9.8 20.3-1.2 3.1-2.2 6.2-2.3 9.5-.1 1.7.1 3.3 1.7 4.2 1.8.9 3.4.4 4.9-.7 2.9-2.2 5.4-4.8 7.3-7.9 2.1-3.3 4.1-6.7 6-10.1.8-1.3 1.8-2.2 3.2-2.6 1.2-.3 2.2 0 3.1.9.8.9.7 1.9.3 2.9-1.3 2.6-2.6 5.3-4.1 7.8-3.8 6.7-8 13.1-13.6 18.5-2.5 2.5-5.4 4.5-8.9 5.3-3 .7-6.1.4-9-.6-3.9-1.4-5.7-4.7-6.6-8.5C599.7 506.7 599.6 504.7 599.3 502.7z" class="coloref66a7 svgShape"></path><path fill="#353234" d="M321.3 370.9c.2 22.1-18.4 41-41.4 41-22.4 0-41.4-18-41.5-41-.1-22.8 18.5-41.2 41.5-41.2C303.5 329.7 321.5 349 321.3 370.9zM275 399.5c-1 1.7-2.1 3.3-4.1 4.1-5.2 2.3-10.4-1.1-10.9-7.1 0-.9.1-1.8 0-2.6-.1-2.2-1.2-3.6-3.1-3.9-1.9-.3-3.3.9-4 3.2-.7 2.8.4 4.8 2.8 6.2.8.5 1.5 1.2 2.3 1.7 8 5.5 16.8 7.8 26.6 6.6 6.1-.8 11.6-2.9 16.6-6.4 3.8-2.6 3.7-2.7 3.6-7.4-.1-2.4-1.5-4-3.6-4-1.9 0-3.4 1.6-3.6 3.8-.1 1.1 0 2.2 0 3.4-.2 5.5-6.3 8.9-11.2 6.3-1.9-1-2.9-2.7-3.8-4.5-.1-1.4 0-2.9-.2-4.3-.3-2-1.7-3.1-3.6-3-1.9.1-3.1 1.3-3.3 3.3C275.3 396.5 275.2 398 275 399.5zM302.8 386.1c3.8 1 5.8 3.7 6.3 7.4.4-.2.5-.2.6-.3.2-.2.3-.3.5-.5 7-9.9 8.8-20.8 5.6-32.5-.3-1.2-1-2.3-1.5-3.5-.4-1-.7-2.1-1.2-3.1-7.9-15.1-25.4-23.1-42-19.1-18.6 4.5-30.7 21.3-28.8 40.3.6 6 2.4 11.5 6.4 16.4.4-.5.8-.9 1.1-1.4 2.2-3.2 5.4-4.5 8.6-3.6 3.2.9 5.8 3.8 5.6 8-.1 1 0 2.1.2 3.1.3 1.7 2 2.7 3.8 2.6 2-.1 3-1.2 3.2-3.2 0-.6 0-1.3 0-1.9.4-4.3 3.7-7.4 7.7-7.3 4.1.1 7.3 3.4 7.5 7.6 0 .9.2 1.7.4 2.6 1.1 2.9 4.1 3.5 5.9 1.3 1-1.2 1.1-2.6.7-4 .1-1.2.2-2.4.5-3.5C294.8 388.6 297.9 385.4 302.8 386.1zM518.1 367.6c.2 22.1-18.5 41-41.5 40.9-22.4 0-41.4-18-41.4-41-.1-22.8 18.6-41.2 41.5-41.2C500.3 326.3 518.4 345.7 518.1 367.6zM471.8 396.1c-1 1.7-2.1 3.3-4.1 4.1-5.2 2.3-10.4-1.1-10.9-7.1 0-.9.1-1.8 0-2.6-.1-2.2-1.2-3.6-3.1-3.9-1.9-.3-3.3.9-4 3.2-.7 2.8.4 4.8 2.8 6.2.8.5 1.5 1.2 2.3 1.7 8 5.5 16.8 7.8 26.6 6.6 6.1-.8 11.6-2.9 16.6-6.4 3.8-2.6 3.7-2.7 3.6-7.4-.1-2.4-1.5-4-3.6-4-1.9 0-3.4 1.6-3.6 3.8-.1 1.1 0 2.2 0 3.4-.2 5.5-6.3 8.9-11.2 6.3-1.9-1-2.9-2.7-3.8-4.5-.1-1.4 0-2.9-.2-4.3-.3-2-1.7-3.1-3.6-3-1.9.1-3.1 1.3-3.3 3.3C472.1 393.1 472 394.6 471.8 396.1zM490.3 391.7c.1-1.2.2-2.4.5-3.5.8-2.9 3.9-6.2 8.8-5.4 3.8 1 5.8 3.7 6.7 7.6.5-.3.6-.7.8-1 7-10 8.8-20.8 5.6-32.5-.3-1.2-1-2.3-1.5-3.5-.4-1-.7-2.1-1.2-3.1-7.9-15.1-25.4-23.1-42-19.1-18.6 4.5-30.7 21.3-28.8 40.3.6 6 2.4 11.5 6.4 16.4.4-.5.8-.9 1.1-1.4 2.2-3.2 5.4-4.5 8.6-3.6 3.2.9 5.8 3.8 5.6 8-.1 1 0 2.1.2 3.1.3 1.7 2 2.7 3.8 2.6 2-.1 3-1.2 3.2-3.2 0-.6 0-1.3 0-1.9.4-4.3 3.7-7.4 7.7-7.3 4.1.1 7.3 3.4 7.5 7.6 0 .9.2 1.7.4 2.6 1.1 2.9 4.1 3.5 5.9 1.3C490.6 394.5 490.7 393.1 490.3 391.7z" class="color353234 svgShape"></path><path fill="#ffffff" d="M378.3 543c1.6-1.8 3.2-3.5 4.8-5.3 2.4-2.6 5.1-4.8 8.2-6.5.9-.5 1.9-.9 2.9-1.1 1.8-.5 3.5-.1 4.6 1.6 1.1 1.6 1.1 3.2.1 4.9-2.2 3.8-4.5 7.6-6.4 11.5-2.5 5-4 10.3-3.7 15.9.1 1.5.5 3 .6 4.5.1.6 0 1.7-.4 1.9-.6.3-1.6.3-2.2-.1-2.7-1.4-4-3.8-4.2-6.8-.2-3.1.4-6 1.3-8.9 1.5-4.8 3.9-9.3 6.3-13.7 1.1-2 2-4 3-6 0-.2.1-.3.1-.5-.1.1-.2.2-.3.3-.2.1-.5.1-.7.3-6.2 5.8-12.5 11.6-16.9 19.1-2 3.4-3.3 6.9-2 10.9.3.8.4 1.7-.5 2.1-.6.2-1.6.2-2.2-.1-2.6-1.4-3.8-3.7-4.1-6.6-.4-4 .8-7.7 2.4-11.4 1.3-3 2.8-5.9 4.1-8.9.3-.7.6-1.5.9-2.2.1-.2.2-.4.3-.6.1-.1.2-.2.2-.2-.1.1-.2.1-.3.2-.2.1-.4.2-.6.4-4.4 2.7-8 6.3-11.2 10.3-3.8 4.9-6.4 10.3-7.4 16.4-.4 2.2-3.9 3.9-5.9 2.9-1.1-.5-1-1.6-.8-2.5.5-1.9 1-3.9 1.6-5.8 2.7-8.3 6.5-16.1 10.9-23.7.2-.3.4-.5.5-.8.6-1.3.2-2-1.2-2.1-.9 0-1.7.1-2.6.3-4.7 1.1-9.5 2.2-14.2 3.2-2.6.5-5.2.4-7.8-.3-3.3-.9-5.3-3.6-5-6.7 0-.5.2-1 .4-1.4.6-1 1.6-1.3 2.3-.4 3 3.7 7 4.1 11.3 3.3 3.1-.5 6.1-.9 9.2-1.3 2.5-.3 5.1-.4 7.6.3 4.6 1.2 4.8 4.8 3.7 7.6-.3.8-.7 1.6-1.1 2.4 0 .2 0 .4-.1.5.1-.1.2-.2.4-.3 1.3-1 2.5-1.9 3.8-2.9 2-1.6 4.3-2.8 6.8-3.3 2.1-.5 3.2-.1 4.3 1.6 1.1 1.6 1.2 3.2.2 4.9C379.1 541 378.7 542 378.3 543c-.2.1-.4.3-.5.4-.2.3-.3.6-.5 1-.1.1-.1.2-.2.4.1-.1.1-.2.2-.3.2-.3.3-.6.5-1C377.9 543.3 378.1 543.2 378.3 543zM363.6 540.7l-.1.1.1 0L363.6 540.7zM417.1 557.9c1.2-2.1 2.3-4.3 3.7-6.4.6-.9 1.5-1.7 2.4-2.3 2.8-2 4.9-1.9 7.5.4.5-.6 1-1.1 1.6-1.8.5.2 1.1.4 1.5.7 2.7 1.6 2.8 2.2 1.3 4.9-1 1.9-1.9 3.8-2.8 5.8-.2.5-.3 1.2-.5 2.3 2-1.6 3.7-2.9 5.2-4.2.8-.7 1.5-.8 2.2-.2 1.2-2 2.2-3.9 3.6-5.7 2.5-3.3 5.5-4 9.4-2.2.2-.5.5-.9.7-1.4 2.4-5.8 5.4-11.2 8.7-16.5.3-.5.7-1.1 1.1-1.6 1-1.1 2-1.1 3.1 0 2 1.9 2.2 3.8.2 6.1-3.3 3.9-6.2 8.2-8.2 12.9-1.5 3.5-2.6 7.2-3.7 10.8-.3 1.1-.8 2.6.4 3.3 1.2.7 1.9-.8 2.6-1.6.9-1.1 1.6-2.4 2.5-3.5.3-.4.9-.5 1.4-.7.2.5.4.9.7 1.4l0 0c-1.4 2-2.8 4-4.2 6-.2.3-.5.7-.7.9-2.7 2.8-5.5 2.1-6.6-1.7-.1-.5-.3-1-.5-1.6-1.4 1.3-2.6 2.7-3.9 3.8-1.6 1.4-3.5 1.6-5.3.5-1.8-1.1-2.1-2.9-2-4.8 0-.8.2-1.7.4-3.1-3.1 2.2-5.7 4.1-7.1 7-.7 1.3-.1 3.3 0 4.9.2 3.6-.1 7.2-1.8 10.4-.6 1.2-1.6 2-2.8 2.5-1.7.8-3.3.5-4.7-.6-1.4-1-1.5-2.5-1.2-4.1.8-3.9 2.7-7.2 4.9-10.3 1.1-1.5 1.4-2.9.4-4.7-1 .7-1.8 1.4-2.7 2.1-1.3.9-2.7 1-4.1.7-1.8-.4-3-1.8-3-4.1C416.7 560.9 417 559.4 417.1 557.9L417.1 557.9zM450.7 552.5c-1.6-.9-2.5-.2-3.2.7-2 2.5-3.5 5.3-4.2 8.5-.2.9-.2 1.8.6 2.1.6.2 1.4-.3 2.1-.6.2-.1.4-.3.5-.5 1.8-2.2 3.2-4.6 4-7.3C450.7 554.4 450.7 553.4 450.7 552.5zM421.5 561.8c0 1.7.8 2.2 2.1 1.5.4-.2.8-.5 1.1-.9 2-2.5 3.7-5.2 4.2-8.5.1-.7-.2-1.6-.6-2.1-.2-.2-1.3.2-1.9.5-.5.3-1 .8-1.3 1.4-1.2 2.3-2.2 4.5-3.3 6.8C421.6 561 421.5 561.5 421.5 561.8zM428 571.2c-.2-.1-.4-.1-.5-.2-1 1.9-2.1 3.7-3 5.6-.4.8-.5 1.8-.6 2.8-.1.8 0 1.8.9 1.9.8.1 1.7-.2 2.4-.6.5-.3.8-1.1 1.1-1.8C429 576.3 428.6 573.7 428 571.2zM697.1 554.2c1.1-1.3 2.1-2.6 3.3-3.8.7-.8 1.5-1.4 2.3-2.1 1.2-.9 2.4-.9 3.8-.1 2.2 1.4 2.6 2.4 1.2 4.7-.9 1.6-1.8 3.2-2.6 4.7-4.1-.4-4.4-.7-3.9-3.7-1.6.8-2.5 2.8-2.2 4.8.3 2 1.7 3.5 3.7 3.9 2.2.4 4-.2 5.2-2.1.7-1.1 1.4-2.3 2.2-3.4.2-.3.8-.4 1.2-.6.2.5.4.9.6 1.4l0 0c-1.2 1.9-2.3 3.8-3.6 5.6-2.3 3.2-6 4-9.1 2.1-.9-.6-1.6-1.5-2.3-2.3-.4-.5-.7-1.2-1.3-2.2-1 2.3-1.9 4.2-2.8 6.1-3 .3-4.1-.8-3.6-3.5.3-1.9.7-3.7.7-5.7-.4.7-.7 1.4-1.2 2-1.3 1.8-2.7 3.6-4.1 5.3-1.2 1.5-2.9 1.5-4.6 1.2-1.3-.2-2-1.4-2.2-3.1-.2-2.5.3-4.9 1.1-7.3.3-.9.6-1.8.7-2.7-4.1 4-6.6 8.9-8.7 14-3.1-.2-4-1.2-3.6-3.8.3-1.9.6-3.8.9-5.6l0 0c.7-1.6 1.3-3.2 2-4.8.7-1.7 1.2-3.5 2-5.1.7-1.7 1.4-1.9 2.9-1 1.9 1.1 2.2 2 1.2 3.9-.5 1.1-1 2.1-1.5 3.2.1.1.3.2.4.3.4-.4.8-.8 1.1-1.2 1.4-1.5 2.7-3.2 4.2-4.5 1.9-1.6 4.3-1.1 5.8.8.8 1 .4 1.9-.1 2.9-1.1 2.2-2.2 4.4-3.3 6.7-.5 1.1-.7 2.3-.1 3.8.6-.3 1.3-.3 1.6-.7 1.1-1.2 2.1-2.4 2.9-3.8 1.2-1.8 1.1-1.8 3.2-1.5 1.2-3 2.3-6.1 3.5-9.1 2.4-6.1 5.6-11.8 9.1-17.3.3-.4.5-.8.8-1.2.7-.7 1.5-.8 2.4-.3 2.2 1.3 2.8 4 1.2 6.1-3.5 4.4-6.6 9-8.9 14.1-.7 1.6-1.3 3.3-1.9 4.9-.1.3-.1.5-.2.8C696.8 554.5 697 554.4 697.1 554.2z" class="colorf483b8 svgShape"></path><path fill="#ffffff" d="M540.4,419.2c-0.3,1.4-0.5,3.4-1,5.3c-0.8,2.7-2.4,4.8-5,6.1c-3.1,1.6-6.2,3.4-9.2,5.1
		c-2.6,1.4-4.2,1.3-6.2-0.7c-3.2-3.2-4.9-7.3-5.5-11.7c-0.3-2.1,0.5-4.1,1.9-5.8c2.4-3.1,5.1-5.7,8.6-7.5c1.8-0.9,3.5-2.2,5.3-3.2
		c1.2-0.7,2.6-1.3,3.9-1.7c2.4-0.7,3.7-0.1,4.8,2.2C539.6,410.8,540.1,414.7,540.4,419.2z" class="coloref66a7 svgShape"></path><path fill="#ffffff" d="M598.1,538.1c1.1-1.5,2.8-2.3,3.3-4.6c-0.8,0.3-1.5,0.4-2.1,0.7c-6.7,3.1-11.6,8.1-15.3,14.4
		c-1.4,2.4-2.5,5-3.3,7.7c-2.1,6.9,3.4,10.6,9.3,9.7c5.5-0.8,8.8-4.5,10.7-9.5c0.3-0.9,0.2-2,0.3-3.2c-3.4,0-6.2,1.2-8.8,2.8
		c-2.5,1.5-4.8,3.4-7.2,5.1c-1.1-0.3-1.4-1.2-1.4-2.2c-0.1-2.9,1.2-5,3.6-6.3c1.9-1,3.9-1.9,6-2.3c2.6-0.6,5.4-0.8,8.1-0.9
		c3.1-0.1,5.1,2.5,4.5,5.5c-1.2,6.7-7.4,12.7-14.5,14c-2.4,0.4-4.7,0.6-7.1,0.1c-6.9-1.4-9.8-5.8-8.5-12.4
		c2-10.3,7.5-18.4,17.1-23.2c3-1.5,6.2-2.7,9.7-2.4c1,0.1,1.4-0.4,1.9-1.1c1.1-1.3,4.8-1.1,5.9,0.3c0.2,0.2,0.3,0.6,0.2,0.9
		c-0.1,0.4-0.2,0.8-0.4,1.1c-2.3,2.9-4.9,5.5-8,7.5C600.8,540.5,599.8,540,598.1,538.1z" class="colorf483b8 svgShape"></path><path fill="#ffffff" d="M644.5,438.1c-0.4,1.1-0.7,2.5-1.5,3.5c-1.9,2.7-4,5.2-6,7.8c-1,1.3-2.3,1.7-3.9,1.3c-3.9-1-7.1-3.2-9.6-6.4
		c-0.9-1.2-1.2-2.6-0.9-4.1c0.6-2.6,1.4-5.1,3-7.2c1.3-1.7,2.5-3.5,3.8-5.2c0.4-0.5,0.8-1,1.2-1.5c2.4-2.4,4.1-2.5,6.6-0.3
		c2.7,2.3,5,4.9,6.2,8.4C644,435.5,644.1,436.6,644.5,438.1z" class="coloref66a7 svgShape"></path><path fill="#ffffff" d="M536.6 557.9c-1.3 1.9-2.4 3.9-3.8 5.8-1.3 1.7-2.7 3.1-5.2 2.9-1.9-.2-2.5-.6-3.1-2.4-.7-2.3 0-4.4.5-6.6.3-1.2.7-2.4 1.1-3.7-2.4 1.1-3.8 3.3-8.7 13.4-2.9.3-3.9-.8-3.5-3.6.8-5.6 2.7-10.8 4.9-16 .6-1.4.9-1.5 2.4-.8.4.2.9.4 1.2.7 1 .7 1.3 1.5.7 2.7-.7 1.4-1.4 2.8-2 4.3.1.1.3.2.4.3.3-.4.7-.8 1-1.2 1.4-1.6 2.7-3.3 4.3-4.8 1.9-1.7 4.1-1.4 5.8.6.9 1.1.6 2.1 0 3.1-.8 1.5-1.7 2.9-2.3 4.4-.6 1.3-1 2.7-1.4 4.1-.1.4.2 1.1.6 1.4.2.2 1 0 1.3-.2 1-1 1.9-2.1 2.8-3.2.4-.6.7-1.3 1.1-1.8.3-.3.8-.4 1.2-.6C536.2 557 536.4 557.4 536.6 557.9L536.6 557.9zM536.6 557.9c.4-.7.8-1.3 1.1-2 1-2.3 2.2-4.4 4.1-6.2 1.2-1.1 2.6-1.8 4.2-2.1 1.8-.2 3.3.4 4.3 1.9.2-.1.2-.1.3-.2.6-.6.9-2 2.1-1.5 1.1.4 2.1 1.2 2.8 2 .3.4.1 1.5-.2 2.2-.9 2.1-2.1 4.1-3 6.2-.4.8-.6 1.7-.7 2.5 0 .5.3 1.2.6 1.6.1.1 1.1-.2 1.4-.5.9-1 1.8-2.1 2.6-3.1.4-.6.7-1.2 1.2-1.8.5-.6 1-.7 1.8-.1-.1.4-.1.9-.3 1.3-1.4 2.2-2.8 4.5-4.4 6.5-.7.9-1.9 1.5-3 1.8-2.6.6-3.8-.3-4.9-3.4-1 .8-1.8 1.7-2.9 2.5-1.7 1.2-3.6 1.3-5.4.1-1.7-1.1-1.9-2.8-1.8-4.6C536.4 559.9 536.6 558.9 536.6 557.9L536.6 557.9zM548.9 553.5c-.3-.8-.5-1.9-.8-1.9-.6-.1-1.4.3-2.1.6-.4.2-.7.6-1 1-1.7 2.4-3.1 5-3.7 7.9-.2.9-.2 1.6.6 2.1.9.5 1.6 0 2.1-.6 1.1-1.4 2.1-2.8 3-4.3C547.7 556.8 548.2 555.2 548.9 553.5zM711.8 557.9c.4-.7.8-1.3 1.1-2 1-2.3 2.2-4.4 4.1-6.2 1.2-1.1 2.6-1.8 4.2-2.1 1.8-.2 3.3.4 4.3 1.9.2-.1.2-.1.3-.2.6-.6.9-2 2.1-1.5 1.1.4 2.1 1.2 2.8 2 .3.4.1 1.5-.2 2.2-.9 2.1-2.1 4.1-3 6.2-.4.8-.6 1.7-.7 2.5 0 .5.3 1.2.6 1.6.1.1 1.1-.2 1.4-.5.9-1 1.8-2.1 2.6-3.1.4-.6.7-1.2 1.2-1.8.5-.7 1-.6 1.8-.2-.1.5-.1 1-.4 1.3-1.4 2.2-2.8 4.5-4.4 6.5-.6.8-1.7 1.5-2.8 1.8-2.6.7-4.2-.4-5-3.5-.9.8-1.7 1.6-2.6 2.3-1.7 1.4-3.6 1.7-5.5.5-1.5-.9-2.3-2.8-2-5C711.8 559.8 711.8 558.8 711.8 557.9L711.8 557.9zM724.2 553.5c-.4-.8-.5-1.7-1.1-2-.4-.2-1.3.3-1.9.6-.3.2-.6.5-.8.8-1.9 2.5-3.3 5.2-3.9 8.3-.1.6.1 1.5.5 1.9.7.7 1.6.1 2.1-.4 1-1.1 1.9-2.3 2.7-3.7C722.6 557.3 723.3 555.5 724.2 553.5zM645.6 558.4c.6-1.4 1.1-2.8 1.9-4.1 1.1-1.7 2.2-3.5 3.7-4.9 2.7-2.5 5.7-2.4 8.3.1.3-.4.5-.8.8-1.2.3-.3.6-.6 1-.6 1.4 0 2.4.8 3.2 1.8.7.8.3 1.6-.1 2.4-1.1 2.1-2.2 4.2-3.2 6.4-.4.9-.6 2-.6 3 0 1 .9 1.4 1.6.7 1-1 1.9-2.1 2.8-3.2.4-.6.7-1.3 1.2-1.8.3-.4.9-.5 1.4-.7.2.5.5.9.7 1.4 0 0 0 0 0 0-1.4 2.1-2.8 4.2-4.4 6.2-.8 1-2 2-3.2 2.4-2.6.9-4.2-.3-5.2-3.4-1 .8-1.8 1.7-2.8 2.4-1.7 1.2-3.5 1.4-5.3.3-1.8-1.1-2.1-2.9-2-4.8C645.4 560.1 645.5 559.2 645.6 558.4L645.6 558.4zM657.8 553.1c-.3-.6-.4-1.4-.9-1.6-.4-.2-1.2.1-1.7.4-.5.2-.9.7-1.2 1.1-.9 1.5-1.9 2.9-2.6 4.5-.6 1.3-1 2.7-1.3 4.1-.1.5.3 1.2.7 1.6.3.2 1.1.1 1.5-.2.5-.2.9-.7 1.2-1.1 1.1-1.8 2.2-3.5 3.1-5.4C657.2 555.5 657.4 554.4 657.8 553.1zM461.7 558.4c.3-.7.7-1.4 1-2.1 1-2.5 2.2-4.8 4.2-6.6 1.2-1.1 2.6-1.8 4.2-2 1.8-.2 3.2.4 4.3 1.9 1.7-2.1 2.6-2.2 4.5-.6 1.2 1.1 1.3 1.6.5 3.2-1 2.1-2.1 4.1-3.1 6.2-.4.9-.6 1.8-.7 2.8 0 .4.3 1.1.7 1.4.2.2.9-.1 1.2-.4.9-1 1.8-2 2.6-3.1.4-.6.7-1.2 1.1-1.8.4-.6.5-.6 2.1-.3-.3.8-.6 1.5-1 2.1-1.2 1.8-2.3 3.7-3.7 5.3-.8.9-1.9 1.8-3.1 2.1-2.6.8-4.1-.4-5-3.5-.9.8-1.7 1.6-2.6 2.3-1.7 1.4-3.6 1.7-5.5.5-1.5-.9-2.3-2.8-2-5C461.7 559.9 461.7 559.1 461.7 558.4L461.7 558.4zM473.9 552.9c-.2-.4-.5-1.3-.8-1.4-.6-.1-1.5.2-1.9.6-2.7 2.6-4.2 6-4.9 9.6-.1.5.4 1.2.8 1.5.3.2 1.1 0 1.5-.2.5-.2.9-.7 1.2-1.1 1.3-2.3 2.5-4.6 3.7-6.9C473.7 554.4 473.7 553.7 473.9 552.9zM417.1 557.9c-1.5 2.1-2.9 4.3-4.5 6.4-1 1.4-2.4 2.3-4.3 2.3-2.2-.1-3-.6-3.7-2.7-.1-.3-.1-.6-.2-.9-1.1.9-2.1 1.9-3.2 2.6-1.6 1.1-3.3 1.1-5 .2-1.7-1-2.3-2.6-2.1-4.3.5-4.5 2.1-8.5 5.4-11.7 1.2-1.2 2.7-1.9 4.4-2.1 1.7-.2 3.1.4 4.2 2 .4-.5.6-1 1-1.3.2-.2.6-.5.8-.5 1.1.5 2.2.9 3.1 1.6.9.7.6 1.7.2 2.6-1 2.1-2.1 4.1-3.1 6.2-.4.9-.6 2-.8 3-.1.4.2 1 .6 1.2.3.2 1 0 1.2-.3.9-1 1.8-2 2.6-3.1.4-.6.7-1.3 1.2-1.8.3-.4.9-.5 1.4-.7C416.7 557 416.9 557.4 417.1 557.9L417.1 557.9zM406.8 553.3c-.3-.6-.4-1.6-.9-1.7-.5-.2-1.4.1-1.9.6-2.7 2.6-4.2 6-4.9 9.6-.1.5.4 1.2.8 1.5.3.2 1.1 0 1.5-.2.5-.3 1-.8 1.3-1.3 1.1-1.8 2.1-3.7 3.1-5.6C406.2 555.2 406.4 554.3 406.8 553.3zM645.6 558.3c-3 1.5-5.2 4-7.2 6.5-.3.4-.2 1.2-.2 1.8.1 3.6.6 7.2-.4 10.7-.4 1.3-.9 2.6-1.6 3.7-1.3 2.1-3.7 2.9-6.1 2.1-1.5-.5-2.5-1.5-2.3-3.2.2-1.9.6-3.8 1.4-5.5.9-2.1 2.1-4.1 3.4-6 .8-1.1 1.2-2.2 1-3.5-.4-2.5-.4-5.1-1.2-7.5-.8-2.7.1-4.4 2.2-5.9.4-.3.7-.5 1.4-1-1.3-.3-2.2-.6-3.3-.9-.4-1.4.5-2 1.6-2.1 1.5-.1 3-.2 4.5 0 2.5.3 3.3 2.2 3.7 4.5-2.2 1.2-4.4 2.4-6.6 3.6.6 2.3 1.1 4.2 1.7 6.4 2.6-1.7 4.6-4.3 7.8-5.8C645.5 557.2 645.6 557.8 645.6 558.3L645.6 558.3zM634 571.8c-1.7 1.9-2.9 4-3.6 6.4-.1.4-.1.8-.1 1.2 0 .8.4 1.4 1.2 1.6.8.1 1.5-.1 1.8-.9.3-.8.7-1.7.7-2.5C634.1 575.7 634 573.8 634 571.8zM499.1 527.9c.9.8 1.5 1.2 1.9 1.7 1.9 2 1.9 3.2.1 5.4-5.5 6.8-9.7 14.2-11.7 22.8-.3 1.3-.3 2.8-.4 4 1.3.7 2.1.2 2.6-.5.9-1.2 1.8-2.5 2.6-3.7.4-.7.8-1.5 2-1.1 0 .5.1 1.1-.2 1.5-1.4 2.5-2.7 5.1-4.9 7-2.5 2.2-4.9 1.6-5.9-1.5-.8-2.6-.7-5.2-.1-7.8 1.3-6.5 4.2-12.4 7.3-18.2 1.4-2.6 3-5.1 4.6-7.6C497.5 529.4 498.3 528.8 499.1 527.9zM620.4 553.4c-3.8 4.1-6.6 8.8-8.6 14-3.1-.3-4-1.2-3.6-3.9.9-5.5 2.8-10.6 4.9-15.7.6-1.5 1.4-1.7 2.8-.8 1.9 1.1 2.1 2 1.2 3.9-.4.9-.9 1.9-1.3 2.8-.1.1 0 .3.1.8 1-1.2 1.8-2.3 2.7-3.3 1.1-1.1 2.2-2.3 3.5-3.2 1.5-1 4.9.3 5.4 2.1.2.6-.1 1.4-.4 2-.7 1.4-1.6 2.8-2.3 4.2-.5 1.1-1.2 1.5-2.5 1.1C619.9 556.7 619.9 556.7 620.4 553.4zM501.7 561c0 2.5.5 3.1 2.6 3.2 3.2.1 5.1-2 6.8-4.3.6-.8 1-1.8 1.6-2.6.3-.4.9-.6 1.8-1.2-.1 1.1 0 1.7-.3 2.1-1.5 2.7-3 5.4-5.6 7.3-2.8 2-5.7 2.3-8.8 1.2-2.3-.8-3.8-3.1-3.4-5.7.6-4.4 2.2-8.4 5.6-11.4.9-.8 2.1-1.5 3.3-1.8 3.2-1 5.8 1.2 5.3 4.6-.6 3.8-2.7 6.4-6.3 7.8C503.5 560.5 502.6 560.7 501.7 561zM508 551.8c-1.2-.6-1.9.3-2.6 1-1.7 1.7-2.7 4-2.6 5.5C506.2 557.5 508.4 554.8 508 551.8z" class="colorf483b8 svgShape"></path><path fill="#58d4d3" d="M557,319c-0.1-0.4-0.3-0.8-0.4-1.3c-0.6-1.9-2.2-3.2-3.7-3.2c-1.4,0-3.6,1.5-4.1,3c-1.5,4.8-2.1,9.5,0.3,14.2
		c0.8,1.6,2.9,2.9,4.7,2.5c0.4-0.1,0.8-0.4,1.1-0.8c0.7-0.9,1.4-1.9,2.4-3.2c0,8.6,0,16.7,0,24.9c2.1,0.3,3.6,1.1,5,2.4
		c2.2,2.1,2.5,6.3,0.2,8.3c-0.5,0.4-1.3,0.6-1.9,0.6c-5.6,0.2-11.2,0.3-16.8,0.5c-5,0.1-10.1,0.3-15.1,0.4c-0.9,0-1.7,0-2.6,0
		c-1.4-30.9-27.9-48.8-51.4-47.5c-24.1,1.4-45.7,20.3-46.6,48.2c-1-0.6-1.3-1.5-1.4-2.5c0-0.6,0-1.3,0-1.9c0-46,0-92,0-138
		c0-0.1,0-0.2,0-0.2c0-3.4,0.7-4,4-3.8c4.9,0.3,9.9,0.4,14.8,0.6c11.7,0.6,23.3,1.3,34.9,2c4.9,0.3,9.9,0.7,14.8,1.6
		c6.8,1.2,13.6,2.3,20,4.7c5.2,1.9,9.1,5.5,11.2,10.8c0.1,0.3,0,0.6,0,1.1c-0.7,0.1-1.3,0.2-1.9,0.1c-14.2-0.2-28.5-0.5-42.7-0.7
		c-5.8-0.1-11.7-0.2-17.5-0.3c-4.6-0.1-9.3-0.2-13.9-0.3c-2.4-0.1-4.6,0.8-6.6,1.9c-2.1,1.1-3,3.4-3,5.9c0,3.4,0,6.7,0,10.1
		c0,3.3-0.3,6.6,0,9.8c0.3,3.7,1.8,7,5.5,8.5c1,0.4,2.2,0.6,3.2,0.6c30.2,0.2,60.3,0.3,90.5,0.5c0.6,0,1.1,0,1.7,0
		c2-0.1,3.4,0.7,4.5,2.4c2.8,4.2,4.9,8.7,6.3,13.6c0.5,1.8,1.5,3.4,2.1,5.1c0.6,1.6,1.1,3.2,1.4,4.8c0.7,4.4,1.8,8.8,1.3,13.3
		c0,0.4-0.1,0.8-0.1,1.1C557.2,318.9,557.1,319,557,319z M447.8,297.7C447.8,297.7,447.8,297.7,447.8,297.7c-1.7,0-3.3-0.1-5,0
		c-1.5,0.1-2.3,0.9-2.3,2.2c0,1.2,0.8,2,2.2,2.1c3.6,0.1,7.2,0.1,10.7,0c1.2,0,2-0.9,2-1.9c0.1-1.1-0.5-1.8-1.5-2.2
		c-0.4-0.2-0.9-0.2-1.4-0.2C451,297.7,449.4,297.7,447.8,297.7z" class="color58d4d3 svgShape"></path><path fill="#fdccca" d="M380.8,231c1.1,0.2,2.1,0.6,3.2,0.7c3.4,0.3,6.9,0.3,10.3,0.6c4.3,0.4,8.5,1.7,12.4,3.6
		c5.7,2.9,9.5,7.7,10.8,14.2c0.7,3.8-0.8,6.7-4.1,8.7c-2.4,1.4-4.7,2-7.5,0.8c-2.3-1-4.5,0.5-5.5,3.2c-0.9,2.4-1.7,4.8-2.6,7.2
		c-2.4,6.3-4.7,12.6-7.1,18.8c-1.1,2.8-0.2,4.3,2.9,4.4c5.9,0.2,11.8,1,17.5,2.4c4,1,7.6,2.9,11.1,5.1c0,9.1,0,18.2,0,27.5
		c-0.4,0.1-0.9,0.2-1.3,0.3c-1.5,0.4-2.4,1.5-2.3,3c0.3,4.2,0.8,8.4,1.3,12.6c0.1,0.8,0.5,1.7,1,2.4c1.2,2,1.7,4.1,1.3,6.4
		c-0.4-0.4-0.9-0.8-1.1-1.2c-0.5-2.3-2-4.1-3.1-6.1c-1-3-1.1-6.1-1-9.2c0-0.6,0-1.3-0.1-1.9c0-0.8,0-1.6,0-2.3
		c0.1-1.8,0.3-3.6-1.4-4.8l0,0c-0.2-0.1-0.3-0.3-0.5-0.4c-0.1,0-0.2-0.1-0.4-0.1c-0.2-0.1-0.4-0.2-0.6-0.4c-1.3-1.1-1.9-2.6-1.8-4.2
		c0.1-1.7,0.4-3.3,0.7-4.9c0.2-1.3,0.7-2.7,0.6-4c-0.2-2.7-1.2-5.3-3.9-6.4c-2.6-1-4.6,0.4-6.3,2.2c-2,2.1-3.9,4.2-5.9,6.3
		c-2.2,2.3-4.4,4.6-7.4,6c-2,0.9-3.8,0.9-5.6-0.4c-1.7-1.1-3.7-1.9-4.2-4.3c0-0.2-0.3-0.4-0.5-0.5c-2.3-2.5-4.6-5.1-7.1-7.5
		c-1.4-1.3-3.2-2.4-5-3.2c-3-1.3-6.2-1.1-9.4-1c-5.2,0.3-10.1,1.4-14.9,3.3c-3.2,1.3-6.3,2.8-9.5,4c-5.6,2.1-10.8,1.4-15.6-2.3
		c-1.9-1.5-3.7-3-5.7-4.4c-4.4-3.1-8.4-3-12.6,0.2c-1.7,1.2-3.2,2.7-4.9,3.8c-3.4,2.3-6.7,4.6-10.2,6.6c-3.5,1.9-6.4,1.1-8.8-2.2
		c-1-1.3-1.9-2.7-2.9-4.1c-2.2-3.1-5.1-5.6-8.1-7.8c-1.2-0.9-2.9-1.5-4.4-1.7c-3.9-0.5-7.5,0.5-10.6,2.8c-2.1,1.6-4,3.4-6.2,4.9
		c-3.9,2.8-7.9,5.4-11.9,8c-2.2,1.4-2.6,2.2-2.1,4.7c0.2,0.8,0.2,1.6,0.4,2.4c0.4,3.1,0.8,6.1,1.1,9.2c0.1,1.9-0.1,3.8-0.1,5.7
		c0,1.5-0.9,2.1-2.3,2.1c0.1-1.8,0.1-3.7,0.4-5.5c0.4-2.3,0.1-4.5-0.2-6.7c-0.3-1.9-0.6-3.8-0.7-5.7c-0.2-2.4-1.2-3.4-3.7-3.4
		c-6.4,0-12.4-4.9-13.8-11.1c-0.5-2.1-0.2-4.1,0.5-6.1c0.8-2.5,2.3-4.8,4.1-6.7c5.3-5.6,11.9-8.7,19.6-9.6c4-0.5,8-0.9,11.9-0.1
		c1.8,0.3,3.5,0.9,5.3,1.5c1.6,0.5,3.2,1.1,4.9,0.5c1.3-0.4,1.6-0.8,1.2-2.1c-0.1-0.5-0.3-0.9-0.5-1.4c-2.5-6.6-5.1-13.1-7.4-19.8
		c-0.9-2.6-2.6-3.9-5.1-3.9c-4.8,0-7.7-2.9-10.2-6.3c-2-2.7-2-5.9-0.7-8.9c1.6-3.7,4.2-6.6,7.6-8.7c5.3-3.3,11-5,17.3-4.7
		c2.9,0.1,5.9,0.1,8.7,1.2c1.2,0.5,2.5,0.4,3.7-0.3c1.5-0.3,1.7-0.6,1.5-2c-0.7-4-1.3-8.1-2.2-12.1c-0.7-3.4-1.7-6.7-2.7-10.1
		c-0.1-0.5-0.8-0.8-1.2-1.3c-1-0.6-2-1.3-3.1-1.8c-4.2-1.8-6.3-5.7-5.3-10c0.4-1.6,1.1-3.2,1.7-4.7c0.3-0.8,0.6-1.6,1.1-2.4
		c0.4-0.7,0.8-1.4,1.4-1.9c1.4-1.1,3-2.1,4.5-3.2c4-3,8.6-3.6,13.4-3.2c8.5,0.7,16.7,2.3,24.8,5.1c1.4,0.5,2.8,0.7,4.2,1.1
		c1.7,0.4,3.4,0.9,4.7,2.3c1.2,1.3,2.9,1.1,4.5,1.3c1.3,0.1,2.5,0.2,3.8,0.3c4.1,0.2,8.3,0.3,12.4,0.4c0.4,0,0.8,0,1.2-0.2
		c2.4-1,4.8-1.3,7.4-1.5c6.9-0.5,13.4-2.7,20-4.5c4.4-1.3,9-2.2,13.5-3.1c3.1-0.6,6.2-0.4,9,1.4c3.7,2.3,3.8,6,0.3,8.5
		c-1,0.7-2.1,1.4-3.2,2.1c-1.1-0.3-1.9,0-2.2,1.2c-0.1,0.2-0.4,0.4-0.7,0.6c0-1.5-1-2.1-2.2-2.4c-1.9-0.5-3.7-0.9-5.6-1.4
		c-3.7-0.8-7.3,1.3-8.4,5c-0.3,1.2-0.6,2.3-0.9,3.5c-0.6,2-1.5,3.7-3,5.1c-2.5,2.3-5.7,2.2-8.1-0.2c-1.4-1.3-2.8-2.6-4.4-3.7
		c-2-1.4-4.3-1.8-6.6-0.7c-2.2,1.1-3.1,3.1-3.2,5.5c-0.1,1.6-0.1,3.2-0.1,4.8c-0.3,4.4-3.4,8-7.6,9c-3.6,0.8-6.6-0.4-9.4-2.5
		c-2.1-1.6-2.3-2.8-1.3-5.2c1-2.3,2.1-4.6,3.2-7c0.6-1.3,1.2-2.6,1.6-4c0.9-3.1-0.5-5.7-3.5-6.9c-3.6-1.4-9.9,0.6-11.6,4
		c-1.3,2.6-3.4,4.4-5.4,6.3c-1.2,1.1-2.7,1.6-4.2,1.3c-1.8-0.4-3.6-1-5.1-1.9c-2.3-1.4-2.8-3.2-1.7-5.8c0.5-1.2,0.7-2.5,0.2-3.7
		c-1.4-3.4-7.7-4.6-10.4-2.1c-0.9,0.9-1.8,1.8-2.8,2.6c-1.4,1.1-2.1,2.4-1.9,4.1c0.2,1.9-0.5,3.5-2,4.6c-1.3,1-2.6,1.8-3.9,2.7
		c-0.9,0.5-1.8,0.9-2.9,1.5c0.3,1.6,0.3,3.1,0.8,4.5c2.2,6.1,3.1,12.5,3.7,19c0.3,3.2,1,4.1,4,4.8c6.9,1.6,13.9,2.9,21.1,2.9
		c6.7,0.1,13.4,0,20.1,0c4.1,0,8.1-0.4,12.1-1.4c1.3-0.3,2.7-0.5,4-0.7c1.6,0.1,3.2,0,4.7,0.8c0.6,0.3,1.7,0.3,2.3,0
		c3.5-1.7,7.4-1.1,11-1.7c3.5-0.5,7.1-0.6,10.7-1.1c3.9-0.5,7.8-1.6,11.8-1.4c0.6,0,1.2-0.6,1.8-0.9l0,0c0.2-0.2,0.3-0.3,0.5-0.5
		c0.1-1,0.3-1.9,0.4-2.9c0.2,0.4,0.5,0.8,0.5,1.2C379.2,230.9,379.9,231.1,380.8,231z M373,247.8c-0.2-0.2-0.3-0.3-0.5-0.5l0,0
		c-0.2-1.4-1.2-1.8-2.5-1.8c-0.1,0-0.3,0-0.4-0.1c-0.5-0.2-1-0.3-1.5-0.5c-0.1,0-0.3,0-0.4-0.1c-2.5-1.4-5.2-1.9-7.9-2.3
		c-0.8-0.1-1.6,0-2.4,0.1c-2.4,0.4-4.8,0.8-7.2,1.4c-2.3,0.6-4.7,1.1-5.6,3.8l0,0c-0.2,0.1-0.3,0.3-0.5,0.4l0,0c-0.7,0-1.4,0-1.4,1
		c-0.7,0.6-1.3,1.2-2,1.9c-0.3,0.2-0.6,0.4-0.9,0.6l0,0c-0.2,0.2-0.3,0.3-0.5,0.5l0,0c-0.2,0.2-0.3,0.3-0.5,0.5
		c-0.2,0.1-0.3,0.3-0.5,0.4c-0.3,0.2-0.6,0.4-0.9,0.6l0,0c-0.3,0.2-0.6,0.4-0.9,0.6c-0.3,0.3-0.7,0.6-1,0.9
		c-0.2,0.2-0.4,0.3-0.5,0.5c-0.3,0.3-0.7,0.6-1,0.9c-0.3,0.2-0.6,0.4-0.9,0.6l0,0c-0.2,0.1-0.4,0.3-0.5,0.4
		c-0.3,0.1-0.6,0.3-0.9,0.4c-1.7-0.1-3.5-0.3-5.2-0.4c-0.4-0.4-0.7-0.8-1.1-1.3c-0.3-0.2-0.6-0.4-0.9-0.6c-0.5-0.3-0.9-0.7-1.4-1
		c-0.6-2.2-2-3.7-3.9-4.8l0,0c0.1-0.8-0.1-1.6-1-1.9l0,0c-0.3-0.5-0.7-1-1-1.4c-0.3-0.2-0.5-0.4-0.8-0.6c-0.4-1.3-1.4-1.4-2.5-1.4
		c-0.3-0.2-0.6-0.3-1-0.5c-0.5-0.2-1-0.3-1.5-0.5c-0.3,0-0.6-0.1-0.9-0.1c-0.5-0.5-1-0.5-1.5,0c-0.3,0-0.6,0.1-0.9,0.1
		c-0.4,0.1-0.7,0.2-1.1,0.4c-0.1,0-0.3,0.1-0.4,0.1c-0.2,0.1-0.4,0.2-0.6,0.3c-1.6,1-3.3,1.8-4.9,2.9c-1.8,1.2-3.3,2.7-5.1,4
		c-2.6,1.8-5.6,2.5-8.6,1c-1.4-0.7-2.6-1.8-3.6-3c-2.5-2.9-5.6-4.6-9.1-5.9c-1.4-0.5-2.8-0.6-4.2,0.1c-2.7,1.2-5.3,2.6-7.3,4.8
		c-0.2,0.2-0.3,0.3-0.5,0.5l0,0c-0.2,0.2-0.3,0.3-0.5,0.5c-0.4,0.5-0.9,1-1.3,1.5c-0.7,0.6-1.6,1.1-2.1,1.9c-1.6,2.2-3.8,4-6.2,5.2
		c-1.8,0.9-2.1,2.2-1.8,3.9c0.2,1,0.6,2,1,2.9c0.8,2,1.6,4,2.4,6c1.1,2.8,2.1,5.7,3.2,8.5c1.1,3,2.5,5.8,2.7,9.1
		c0.1,1.7,1.3,2.6,3.1,2.7c1.8,0.2,3.6,0.3,5.5,0.5c1.3,0.2,2.6,0.3,3.7,0.9c2.4,1.4,4.8,2,7.5,2c4.8,0.2,9.5,0.5,14.3,0.9
		c2,0.1,4,0.3,5.9,0.8c3.7,0.8,7.4,1.6,11.3,0.7c1.9-0.4,3.9-0.4,5.9-0.6c2.2-0.2,4.4-0.3,6.7-0.4c1.1,0,2.2,0.1,3.3,0.2
		c4,0.3,8,1,12-0.2c4.1-1.2,8.2-1.7,12.5-1.5c1.6,0.1,3.2,0,4.8,0c1,0,2,0,3,0c3.4-0.1,6.8-0.1,10.3-0.3c2.1-0.2,4.2-0.9,6.3-1
		c2-0.1,3.9,0.4,5.9,0.7c2.6,0.5,5.2-0.8,6.2-3.3c1.4-3.5,2.7-7,4-10.5c2.6-7.4,4.9-14.8,8.5-21.8c0.9-1.8,1.1-3.6,0.6-5.6
		c-0.2-0.9-0.2-1.9,0-2.8c0.4-1.8,0-3.4-0.8-4.8c-0.9-1.6-2.2-2.6-4.3-2.4c-3,0.3-5.5,1.7-7.5,3.8c-1.1,1.1-2.1,2.1-3.5,2.8
		c-0.5,0.3-1,0.8-1.4,1.2l0,0c-0.3,0.1-0.7,0.3-1,0.4c-0.1,0-0.3,0.1-0.4,0.1c-0.4,0.1-0.7,0.2-1.1,0.3c-0.1,0-0.3,0-0.4,0.1
		c-0.2,0-0.3,0-0.5,0c-0.3,0-0.6,0-0.9,0c-1.3-0.7-2.6-1.4-4-2c-0.6-0.3-1.2-0.3-1.8-0.5c-0.2-0.1-0.3-0.3-0.5-0.4
		C373.3,248.1,373.1,247.9,373,247.8L373,247.8z" class="colorfdccca svgShape"></path><path fill="#eb8541" d="M417.1,332.3c0,0.8,0,1.6,0,2.3c-0.4,1.3-0.8,2.5-1.2,4c-0.9-0.3-1.8-0.3-2.3-0.8c-2.3-2.4-5.4-3.6-8.3-5.1
		c-2.1-1.1-4.4-2-6.4-3.3c-3.2-2.1-3.9-2.2-7,0c-1.3,0.9-2.5,1.9-3.8,3c-1.8,1.4-3.9,1.4-5.9,1.3c-1.5-0.1-2-1.4-2.8-2.4
		c-0.4-0.5-1.2-0.9-1.8-0.9c-1.5-0.2-3,0.2-4.2,1.2c-1.6,1.3-3.2,2.6-4.8,3.9c-5.4,4.3-11.1,8.1-17.4,10.9
		c-4.2,1.8-8.2,2.3-12.5,0.6c-8.3-3.3-15.8-7.9-23.1-13c-2.6-1.8-5.4-3.3-8.5-4.3c-0.4-0.1-0.8,0.1-1.3,0.1
		c-9.1-5.8-19.1-8.5-29.8-7.4c-12.6,1.3-23.2,6.6-31.5,16.2c-0.1,0.2-0.4,0.3-0.6,0.4c-3.2-2.6-6.3-5.2-9.5-7.9
		c-1.4-1.1-2.4-2.4-2.7-4.3c-0.2-1.3-0.8-2.5-1.2-3.8c-0.1-0.8-0.2-1.6-0.4-2.4c-0.5-2.6-0.1-3.3,2.1-4.7c4-2.6,8-5.3,11.9-8
		c2.1-1.5,4.1-3.4,6.2-4.9c3.1-2.4,6.8-3.3,10.6-2.8c1.5,0.2,3.2,0.8,4.4,1.7c3,2.2,5.9,4.7,8.1,7.8c1,1.4,1.9,2.7,2.9,4.1
		c2.4,3.2,5.3,4.1,8.8,2.2c3.5-2,6.9-4.3,10.2-6.6c1.7-1.2,3.2-2.6,4.9-3.8c4.2-3.2,8.2-3.2,12.6-0.2c2,1.4,3.8,3,5.7,4.4
		c4.8,3.7,10,4.4,15.6,2.3c3.2-1.2,6.3-2.7,9.5-4c4.8-1.9,9.7-3,14.9-3.3c3.2-0.2,6.4-0.3,9.4,1c1.8,0.8,3.6,1.8,5,3.2
		c2.5,2.3,4.7,5,7.1,7.5c0.2,0.2,0.4,0.3,0.5,0.5c0.5,2.4,2.4,3.1,4.2,4.3c1.9,1.3,3.7,1.3,5.6,0.4c3-1.4,5.2-3.7,7.4-6
		c2-2.1,3.9-4.2,5.9-6.3c1.7-1.9,3.7-3.2,6.3-2.2c2.8,1.1,3.8,3.6,3.9,6.4c0.1,1.3-0.4,2.7-0.6,4c-0.3,1.6-0.6,3.3-0.7,4.9
		c-0.1,1.6,0.5,3.1,1.8,4.2c0.2,0.1,0.4,0.2,0.6,0.4c0.1,0,0.2,0.1,0.4,0.1c0.2,0.1,0.3,0.3,0.5,0.4l0,0
		C416.1,329.1,416.6,330.7,417.1,332.3z" class="coloreb8541 svgShape"></path><path fill="#57d3d2" d="M329.3,126.4c-2.1,5.7-4.3,11.3-6.2,17.1c-1.9,5.7-3.4,11.5-5.3,17.2c-0.8,2.5-1.9,4.9-3.2,7.2
		c-1.4,2.5-3.8,3.6-6.6,3.6c-2.7,0-4.9-1.2-5.9-3.7c-0.7-1.7-1-3.7-1.4-5.5c-0.3-1.2-0.3-2.6-0.7-3.7c-4.2-11.4-8.4-22.8-12.7-34.2
		c-0.1-0.2-0.2-0.4-0.7-0.9c-0.4,9.2,0.3,17.9,0.9,26.6c0.5,8.7,1,17.3,1.4,26c-4.6-0.3-9.1-0.6-13.7-0.9c0-1.6-0.1-3.2,0-4.8
		c0.7-10.9-0.2-21.7-0.4-32.6c-0.3-11.9-0.5-23.8-0.7-35.7c0-0.3,0.1-0.6,0.1-1.1c2-0.6,3.9-1.3,5.9-1.8c1.4-0.4,2.8,0.2,3.8,1
		c1.3,1.1,2.7,2.3,3.6,3.8c2.2,3.6,4.4,7.2,6.1,11.1c5.7,12.8,10.4,26,14.5,39.3c0.3,0.9,0.6,1.8,1.3,2.6c1.5-4.7,3-9.4,4.5-14.1
		c3.9-12.4,7.7-24.9,10.6-37.6c0.3-1.5,0.7-3,0.9-4.5c0.2-1.4,0.9-2.4,2.1-3c3.1-1.6,6.4-2.1,9.8-1.1c2.2,0.6,2.9,1.7,3,4
		c0.6,10.8,1.1,21.5,1.8,32.3c0.5,8.7,1.1,17.4,1.6,26.1c0.3,5.8,0.6,11.7,0.8,17.5c0.2,4.3-2.9,7.4-7.2,7.6c-0.9,0-1.7,0.1-2.6,0.2
		c-2.7,0.1-3.6-0.8-3.8-3.4c-1-13.9-0.6-27.8-0.9-41.7c-0.1-4.2-0.3-8.5-0.4-12.7C329.6,126.4,329.4,126.4,329.3,126.4z" class="color57d3d2 svgShape"></path><path fill="#cf5418" d="M327,375c0.9-7.7,0-15.2-2.8-22.4c-0.1-0.4-0.2-0.8-0.3-1.1c1.6,1,3.2,2,4.8,3.1c3.3,2.3,6.7,4.4,10.7,5.2
		c2.5,0.5,5.2,0.2,7.9,0.4c1.9,0.1,3.7-0.4,5.3-1.3c3.2-2,6.3-4,9.4-6.2c2.6-1.8,4.9-3.8,7.5-5.5c2.8-1.8,5.8-3.3,8.7-5
		c4.1-2.3,8.5-3.2,13.2-2.6c5.4,0.7,10.6,2.2,15.5,4.6c2,0.9,4.2,1.8,6.3,2c4,0.4,6.2,1.9,7.3,5.7c0.3,1.2,1,2.3,1.5,3.4
		c0.1,0.2,0.2,0.3,0.3,0.5c0,3.4,0,6.8,0,10.2c-1.5,0.2-3.1,0.1-4.5,0.5c-6.9,2.2-14.2,2.6-21.3,4.2c-3.6,0.8-7.4,1.1-11.1,1.5
		c-5.5,0.6-11.1,1-16.6,1.5c-4.4,0.4-8.7,0.7-13.1,0.9c-5.6,0.3-11.2,0.4-16.7,0.5C335,375.1,331,375,327,375z" class="colorcf5418 svgShape"></path><path fill="#fdbd79" d="M305.7,329.9c0.4,0,0.9-0.2,1.3-0.1c3.1,1,5.9,2.4,8.5,4.3c7.3,5,14.8,9.6,23.1,13c4.3,1.7,8.3,1.2,12.5-0.6
		c6.3-2.8,12-6.5,17.4-10.9c1.6-1.3,3.3-2.6,4.8-3.9c1.2-1,2.7-1.4,4.2-1.2c0.6,0.1,1.4,0.4,1.8,0.9c0.8,1,1.3,2.3,2.8,2.4
		c2.1,0.1,4.2,0.2,5.9-1.3c1.2-1,2.5-2,3.8-3c3.1-2.2,3.8-2.1,7,0c2,1.3,4.2,2.2,6.4,3.3c2.9,1.5,6,2.7,8.3,5.1
		c0.5,0.5,1.4,0.5,2.3,0.8c0.5-1.5,0.9-2.8,1.2-4c0,0.6,0.1,1.3,0.1,1.9c-0.1,3.1,0,6.2,1,9.2c-2-1.2-4.1-2.2-6.5-2
		c-0.4,0-0.9-0.2-1.4-0.4c-5.1-1.8-10.2-3.6-15.4-5.4c-2.7-1-5.4-1-8.2-0.6c-6.2,1-11.3,4.2-16.6,7.2c-2.3,1.3-4.3,2.9-6.5,4.4
		c-1.5,1-3.1,2-4.1,3.6c-0.2,0.4-0.7,0.6-1.2,0.8c-2.9,1.3-5.7,2.8-8.7,3.9c-4.3,1.7-8.6,1.5-12.7-0.6c-3.9-2-7.6-4.3-11.5-6.4
		c-0.7-0.4-1.6-0.7-2.3-1.1l0,0c-0.1-0.2-0.3-0.4-0.4-0.6c-1.8-2.7-3.4-5.5-5.4-8.2C314.1,336.2,310.2,332.7,305.7,329.9z" class="colorfdbd79 svgShape"></path><path fill="#c01b16" d="M371,165.7c1.5,3.1,2.4,6.2,1.5,9.7c-0.4,1.3-0.9,2.1-2.4,2.5c-5.2,1.3-10.4,2.8-15.6,4.4
		c-1.5,0.4-2.5,0.2-3.6-0.9c-6.8-7-3.7-17.8,4.8-21c4.9-1.9,9.4-0.7,13.2,2.8c0.4,0.4,0.9,0.7,1.3,1
		C370.4,164.7,370.7,165.2,371,165.7z" class="colorc01b16 svgShape"></path><path fill="#eb8541" d="M323,349.1c0.8,0.4,1.6,0.7,2.3,1.1c3.8,2.1,7.6,4.4,11.5,6.4c4.1,2.1,8.4,2.3,12.7,0.6c3-1.2,5.8-2.6,8.7-3.9
		c0.4-0.2,0.9-0.4,1.2-0.8c1-1.6,2.6-2.5,4.1-3.6c2.2-1.4,4.3-3,6.5-4.4c5.2-3.1,10.4-6.2,16.6-7.2c2.8-0.5,5.5-0.4,8.2,0.6
		c5.1,1.8,10.2,3.6,15.4,5.4c0.5,0.2,0.9,0.4,1.4,0.4c2.4-0.2,4.5,0.8,6.5,2c1.1,2,2.6,3.8,3.1,6.1c0.1,0.5,0.7,0.8,1.1,1.2
		c0,0.6,0,1.2,0,1.9c-0.1,0.1-0.2,0.3-0.3,0.4c-0.5-1.1-1.2-2.2-1.5-3.4c-1.1-3.8-3.3-5.3-7.3-5.7c-2.2-0.2-4.3-1.1-6.3-2
		c-5-2.3-10.2-3.8-15.5-4.6c-4.6-0.6-9.1,0.3-13.2,2.6c-2.9,1.6-5.9,3.2-8.7,5c-2.6,1.7-5,3.7-7.5,5.5c-3.1,2.1-6.2,4.2-9.4,6.2
		c-1.6,1-3.4,1.4-5.3,1.3c-2.6-0.1-5.3,0.2-7.9-0.4c-3.9-0.8-7.4-2.9-10.7-5.2c-1.6-1.1-3.2-2.1-4.8-3.1
		C323.7,350.6,323.3,349.9,323,349.1z" class="coloreb8541 svgShape"></path><path fill="#d05519" d="M237.9,348.1c-2.1,4.5-3.8,9.1-4.5,14.1c-0.3,2.4-0.5,4.9-0.8,7.4c-2.6-0.3-5-0.5-7.4-0.9
		c-1.7-0.3-2.8-2.2-2.3-4.1c0.3-1.1,0.9-2.2,1.4-3.3c0.9-1.8,1.8-3.6,2.7-5.3c0.5-0.7,1.2-1.3,1.5-2c0.6-1.7,1-3.5,1.5-5.2
		c0.4-1.8,0.7-3.5,1-5.3c1.3-0.7,2.5-0.3,3.4,0.8c0.7,0.8,1.1,1.7,1.8,2.5C236.7,347.2,237.3,347.6,237.9,348.1z" class="colord05519 svgShape"></path><path fill="#df7c3d" d="M327,375c4,0,8,0,12,0c5.6-0.1,11.2-0.2,16.7-0.5c4.4-0.2,8.7-0.6,13.1-0.9c5.5-0.5,11.1-0.9,16.6-1.5
		c3.7-0.4,7.5-0.7,11.1-1.5c7.1-1.6,14.3-1.9,21.3-4.2c1.4-0.5,3-0.4,4.5-0.5c0.4,1.1-0.3,1.4-1.1,1.6c-3.4,0.7-6.8,1.5-10.3,2.2
		c-11.3,2.2-22.6,3.7-34.1,4.9c-4.6,0.5-9.2,0.7-13.8,0.9c-10.7,0.4-21.4,0.6-32,0.9c-1.3,0-2.5,0-3.9,0
		C327,375.8,327,375.4,327,375z" class="colordf7c3d svgShape"></path><path fill="#fdbd79" d="M231,343.4c-0.3,1.8-0.6,3.6-1,5.3c-0.4,1.8-0.8,3.5-1.5,5.2c-0.3,0.8-1,1.3-1.5,2c1.1-5.1,2.3-10.1,3.4-15.3
		c-0.4-0.2-0.9-0.4-1.3-0.6c1.4,0,2.3-0.5,2.3-2.1c0-1.9,0.2-3.8,0.1-5.7c-0.2-3.1-0.7-6.1-1.1-9.2c0.4,1.3,1,2.5,1.2,3.8
		c0.3,1.9,1.3,3.2,2.7,4.3c3.1,2.6,6.3,5.2,9.5,7.9c-1.7,2.5-3.5,5-5.2,7.6c-0.7-1-1.3-2-2-2.9c-0.8-1.1-1.6-2.2-2.5-3.2
		c-1.1-1.1-2.2-0.7-2.6,0.8C231.2,342,231.1,342.7,231,343.4z" class="colorfdbd79 svgShape"></path><path fill="#e0dad4" d="M380.8,231c-0.9,0.1-1.6,0-1.6-1.1c0-0.4-0.3-0.8-0.5-1.2c-0.1-0.1-0.1-0.2-0.1-0.4c-0.1-0.8-0.2-1.7-0.3-2.5
		c-1-5.6-1.2-11.2-0.4-16.8c0.5-3.4,1.2-6.7,1.9-10c0.3-1.5,0.7-2.9,1.1-4.4c0.2-0.2,0.6-0.4,0.7-0.6c0.3-1.2,1.1-1.5,2.2-1.2
		c-0.8,2.3-1.7,4.6-2.3,7c-0.6,2.5-1,5.2-1.2,7.8C379.5,215.4,379.4,223.2,380.8,231z" class="colore0dad4 svgShape"></path><path fill="#57d3d2" d="M553.3,317.7c0.2,0.4,0.4,0.9,0.6,1.4c1,2.7,1,5.5,0.8,8.3c-0.1,1.3-0.9,2.5-1.5,4.2c-0.7-0.8-1.3-1.2-1.6-1.7
		c-1.1-2.4-1.5-4.8-1-7.4c0.3-1.2,0.6-2.3,0.8-3.5C551.7,318.1,552.2,317.6,553.3,317.7z" class="color57d3d2 svgShape"></path><path fill="#353234" d="M371,165.7c-0.3-0.5-0.6-1-0.9-1.4c0.4-0.6,1-1.1,1.2-1.7c1-2.5,1.8-5.1,2.7-7.6c0.5-1.4,1.5-2.1,2.5-1.6
		c0.8,0.4,1.1,1.6,0.4,2.7c-0.8,1.4-1.8,2.8-2.7,4.2C373.2,162.1,372.1,163.9,371,165.7z" class="color353234 svgShape"></path><path fill="#e0dad4" d="M267.4,207c0.4,0.4,1.1,0.8,1.2,1.3c1,3.3,2,6.7,2.7,10.1c0.9,4,1.5,8.1,2.2,12.1c0.2,1.4,0,1.6-1.5,2
		c0.3-4.7-0.6-9.3-1.6-13.9c-0.6-2.5-1.5-5-2.2-7.5C267.9,209.7,267.7,208.3,267.4,207z" class="colore0dad4 svgShape"></path><path fill="#eb8541" d="M231,343.4c0.1-0.7,0.2-1.4,0.4-2.1c0.4-1.5,1.5-1.9,2.6-0.8c1,0.9,1.7,2.1,2.5,3.2c0.7,1,1.4,2,2,2.9
		c-0.2,0.5-0.4,1-0.7,1.5c-0.6-0.5-1.3-0.9-1.8-1.4c-0.7-0.8-1.2-1.7-1.8-2.5C233.5,343.1,232.3,342.7,231,343.4z" class="coloreb8541 svgShape"></path><path fill="#e0dad4" d="M348.9,183.4c-0.6,0.1-1.1,0.1-1.8,0.2C348,182.4,348,182.4,348.9,183.4z" class="colore0dad4 svgShape"></path><path fill="#df7c3d" d="M421.9,355.2c0.1-0.1,0.2-0.3,0.3-0.4c0,0.3,0,0.6,0,0.9C422.1,355.6,422,355.4,421.9,355.2z" class="colordf7c3d svgShape"></path><path fill="#eb8541" d="M322.6,348.6c0.1,0.2,0.3,0.4,0.4,0.6C322.9,348.9,322.8,348.7,322.6,348.6z" class="coloreb8541 svgShape"></path><path fill="#ec65a5" d="M286.9,397.7c-0.1-0.9-0.3-1.7-0.4-2.6c-0.2-4.2-3.3-7.5-7.5-7.6c-4.1-0.1-7.4,3-7.7,7.3
		c-0.1,0.6,0,1.3,0,1.9c-0.1,2-1.2,3-3.2,3.2c-1.8,0.1-3.5-0.9-3.8-2.6c-0.2-1-0.2-2.1-0.2-3.1c0.3-4.2-2.4-7-5.6-8
		c-3.2-0.9-6.5,0.4-8.6,3.6c-0.3,0.4-0.7,0.8-1.1,1.4c-4-4.9-5.8-10.5-6.4-16.4c-1.9-19.1,10.2-35.9,28.8-40.3
		c16.6-4,34.1,4,42,19.1c0.5,1,0.8,2.1,1.2,3.1c-0.2,0.8-0.4,1.6-0.5,2.4c-2.3-0.8-2.7-0.7-3.8,1.4c-0.5,1-1.1,1.9-1.6,2.9
		c-0.7,1.4-0.4,2.5,0.7,3.1c1,0.5,1.9,0.2,2.8-1.1c0.7-1,1.2-2,1.8-3c0,0.3,0.1,0.6,0.1,1c-0.2,5.2-1.8,9.9-4,14.6
		c-0.5-0.5-0.9-1.1-1.4-1.6c-0.9-0.9-1.9-1-2.8-0.3c-0.9,0.7-1.1,1.6-0.3,2.7c0.7,1.1,1.6,2.2,2.4,3.3c-0.8,0.9-1.7,1.7-2.3,2.7
		c-0.7,1.1-1.6,1.4-2.8,1.4c-4.9-0.7-8,2.5-8.8,5.4c-0.3,1.1-0.3,2.3-0.5,3.5C291.3,395.9,289.1,396.8,286.9,397.7z M279.9,357.2
		c-7.6,0-13.8,6-13.9,13.5c0,7.5,6.2,13.7,13.7,13.8c7.6,0.1,14-6.2,14-13.7C293.7,363.2,287.5,357.2,279.9,357.2z M292.2,387.9
		C292.2,387.9,292.2,387.9,292.2,387.9c0.1-0.6,0.1-1.3,0.1-1.9c-0.1-1.4-0.8-2.2-1.9-2.3c-1.1-0.1-2.1,0.6-2.2,2
		c-0.1,1.6-0.1,3.2,0,4.8c0.1,1.2,1,1.9,2.1,1.8c1.1-0.1,1.8-0.7,1.9-1.7C292.3,389.7,292.2,388.8,292.2,387.9z M259.6,364
		c-1.6-0.1-2.7,1.1-2.4,2.4c0.3,1.6,0.8,3.2,1.4,4.8c0.4,1,1.2,1.5,2.3,1.2c1.1-0.3,1.7-1.3,1.4-2.4c-0.4-1.5-0.8-3.1-1.4-4.6
		C260.7,364.8,259.9,364.3,259.6,364z M278,344.3c-0.2,1.5,0.3,2.3,1.3,2.7c1.1,0.4,2-0.1,2.4-1.1c0.6-1.5,1.1-3.2,1.5-4.8
		c0.3-1.2-0.4-2.2-1.4-2.4c-1.1-0.3-1.9,0.3-2.3,1.2C278.8,341.4,278.4,343.1,278,344.3z M295.5,362.5c0,1.1,0.5,1.9,1.6,2.2
		c1.1,0.3,1.9-0.2,2.3-1.2c0.6-1.5,1-3,1.4-4.6c0.3-1.2-0.2-2.1-1.3-2.5c-1.1-0.4-2,0.1-2.4,1C296.5,359.2,296.1,360.9,295.5,362.5z
		 M276.6,353.2c-1.2-2-2.2-3.9-3.5-5.6c-0.3-0.4-1.6-0.4-2.2-0.1c-0.5,0.2-1.1,1.3-0.9,1.7c0.9,1.9,2,3.8,3.2,5.6
		c0.2,0.3,1.4,0.3,1.9,0.1C275.7,354.6,276,353.8,276.6,353.2z M301.6,349.1c-0.5,0.4-1.3,0.9-1.5,1.5c-0.2,0.6,0,1.8,0.5,2.1
		c1.6,1,3.3,1.9,5,2.6c1,0.4,1.9-0.2,2.3-1.2c0.4-1,0-1.8-0.8-2.3c-1.4-0.9-2.9-1.6-4.4-2.3C302.5,349.3,302.2,349.3,301.6,349.1z
		 M270.5,338.8c-0.4-0.5-0.7-1.2-1.2-1.5c-0.8-0.5-1.7-0.3-2.4,0.5c-0.9,1.2-1.9,2.4-2.7,3.7c-0.8,1.3-0.7,2.2,0.3,2.9
		c0.9,0.7,2.1,0.5,2.9-0.5c0.9-1.1,1.7-2.3,2.5-3.5C270.2,339.9,270.2,339.4,270.5,338.8z M287.4,347.6c-0.3,0.2-0.9,0.5-1.3,1.1
		c-0.8,1.3-1.5,2.6-2.1,4c-0.5,1.2-0.2,2.1,0.8,2.7c1,0.6,2,0.2,2.5-0.6c0.9-1.5,1.8-3,2.5-4.6C290.4,348.7,289.4,347.5,287.4,347.6
		z M251,365.8c1.8,0.1,2.8-1.3,2.3-2.6c-0.6-1.5-1.5-3-2.3-4.5c-0.6-1.1-1.8-1.3-2.7-0.7c-0.9,0.6-1.3,1.5-0.7,2.7
		c0.6,1.3,1.3,2.6,2,3.8C250,365.1,250.7,365.5,251,365.8z M303.8,373.1c0.6,0,1.6,0,2.5-0.2c1.4-0.3,2.1-1.1,1.9-2.3
		c-0.1-1.1-0.9-1.8-2.2-1.7c-1.6,0-3.2,0.2-4.8,0.4c-1.1,0.1-1.8,1.1-1.6,2c0.1,1,0.7,1.6,1.7,1.7
		C302,373.1,302.7,373.1,303.8,373.1z M248,378.1c2.3-1.1,4.6-1.7,6.1-3.6c0.3-0.4,0.2-1.4-0.1-2c-0.4-0.8-1.3-1.1-2.1-0.8
		c-1.7,0.8-3.3,1.6-4.9,2.6c-0.5,0.3-0.8,1.5-0.6,2.1C246.6,377,247.4,377.5,248,378.1z M259.7,383.6c0.2-0.1,0.8-0.2,1.1-0.5
		c1.2-1.4,2.4-2.8,3.4-4.3c0.6-0.8,0.3-1.7-0.4-2.4c-0.9-0.7-1.9-0.8-2.6,0c-1.2,1.3-2.3,2.6-3.3,4.1
		C257.1,381.9,258.1,383.5,259.7,383.6z M295.7,376c-1.2,0-1.9,0.6-2.1,1.5c-0.3,1,0.2,1.7,1,2.2c1.4,0.8,2.8,1.6,4.2,2.2
		c1,0.5,2,0.1,2.5-0.8c0.5-0.8,0.3-2-0.5-2.6c-1.3-0.8-2.6-1.5-4-2.2C296.4,376.2,295.9,376.1,295.7,376z M267.7,391.1
		c0.4-0.3,1.1-0.7,1.5-1.3c0.8-1.3,1.4-2.7,2.1-4c0.6-1,0.2-1.9-0.7-2.5c-0.9-0.5-2-0.5-2.6,0.4c-1,1.5-1.9,3.1-2.5,4.8
		C265,389.9,266,391.1,267.7,391.1z M295.7,343.2c-0.1-0.5,0-0.7-0.1-0.8c-1.2-1.7-2.4-3.4-3.7-4.9c-0.3-0.3-1.5-0.2-2.1,0.1
		c-0.9,0.4-1.1,1.5-0.6,2.3c1,1.6,2,3.1,3.3,4.4c0.4,0.4,1.5,0.5,2.2,0.2C295,344.3,295.4,343.5,295.7,343.2z M256.2,352.7
		c2.2-1,4.3-1.8,5.9-3.4c0.6-0.6,0.5-1.6-0.2-2.2c-0.5-0.4-1.5-0.9-2.1-0.7c-1.7,0.7-3.3,1.6-4.8,2.6c-0.7,0.5-1,1.4-0.5,2.1
		C254.9,351.8,255.6,352.2,256.2,352.7z M265.9,358.4C265.9,358.4,266,358.4,265.9,358.4c0-1,0-1.9-0.2-2.8c-0.2-1-1-1.7-2.1-1.5
		c-1,0.1-1.6,0.8-1.6,1.8c0,1.7,0,3.3,0.1,5c0.1,1.1,0.8,1.7,1.9,1.7c1.1,0,1.8-0.6,1.9-1.7C266,360,265.9,359.2,265.9,358.4z" class="colorec65a5 svgShape"></path><path fill="#9e7d5c" d="M260.1,396.6c0.5,6,5.7,9.3,10.9,7.1c1.9-0.8,3.1-2.4,4.1-4.1c2.5-0.2,5.1-0.4,7.6-0.5c0.9,1.8,2,3.4,3.8,4.5
		c4.9,2.7,11-0.7,11.2-6.3c0-1.1-0.1-2.2,0-3.4c0.2-2.2,1.7-3.8,3.6-3.8c2.1,0,3.5,1.6,3.6,4c0.2,4.7,0.2,4.8-3.6,7.4
		c-5,3.5-10.5,5.6-16.6,6.4c-9.7,1.3-18.5-1.1-26.6-6.6c-0.8-0.5-1.5-1.3-2.3-1.7c-2.4-1.4-3.5-3.4-2.8-6.2
		C255.3,394.6,257.4,396.1,260.1,396.6z" class="color9e7d5c svgShape"></path><path fill="#a64974" d="M302.8,386.1c1.2,0,2.1-0.3,2.8-1.4c0.6-1,1.5-1.8,2.3-2.7c0.2,0.2,0.4,0.5,0.7,0.6c1.1,0.7,2,0.7,2.8,0
		c0.8-0.8,0.8-1.6,0-2.8c-0.4-0.7-0.9-1.3-1.4-1.9c2.2-4.6,3.8-9.4,4-14.6c0-0.3,0-0.6-0.1-1c0.4-1.1,0.7-2.1,0-3.2
		c0.2-0.8,0.4-1.6,0.5-2.4c0.5,1.2,1.1,2.3,1.5,3.5c3.2,11.7,1.4,22.6-5.6,32.5c-0.1,0.2-0.3,0.4-0.5,0.5c-0.1,0.1-0.3,0.1-0.6,0.3
		C308.6,389.8,306.6,387.1,302.8,386.1z" class="colora64974 svgShape"></path><path fill="#dfb181" d="M282.6 398.9c-2.5.2-5.1.4-7.6.5.1-1.5.3-3 .4-4.5.2-2.1 1.4-3.3 3.3-3.3 1.9-.1 3.3 1 3.6 3C282.6 396.1 282.6 397.5 282.6 398.9zM260.1 396.6c-2.7-.5-4.8-2-7.1-3.4.7-2.3 2.1-3.5 4-3.2 1.9.3 3 1.7 3.1 3.9C260.2 394.8 260.1 395.7 260.1 396.6z" class="colordfb181 svgShape"></path><path fill="#a64974" d="M286.9,397.7c2.2-0.9,4.4-1.8,6.6-2.7c0.4,1.5,0.3,2.9-0.7,4C291,401.3,288,400.6,286.9,397.7z" class="colora64974 svgShape"></path><path fill="#ec65a5" d="M483.7,394.4c-0.1-0.9-0.3-1.7-0.4-2.6c-0.2-4.2-3.3-7.5-7.5-7.6c-4.1-0.1-7.4,3-7.7,7.3
		c-0.1,0.6,0,1.3,0,1.9c-0.1,2-1.2,3-3.2,3.2c-1.8,0.1-3.5-0.9-3.8-2.6c-0.2-1-0.2-2.1-0.2-3.1c0.3-4.2-2.4-7-5.6-8
		c-3.2-0.9-6.5,0.4-8.6,3.6c-0.3,0.4-0.7,0.8-1.1,1.4c-4-4.9-5.8-10.5-6.4-16.4c-1.9-19.1,10.2-35.9,28.8-40.3
		c16.6-4,34.1,4,42,19.1c0.5,1,0.8,2.1,1.2,3.1c-0.2,0.8-0.4,1.6-0.5,2.4c-2.3-0.8-2.7-0.7-3.8,1.4c-0.5,1-1.1,1.9-1.6,2.9
		c-0.7,1.4-0.4,2.5,0.7,3.1c1,0.5,1.9,0.2,2.8-1.1c0.7-1,1.2-2,1.8-3c0,0.3,0.1,0.6,0.1,1c-0.2,5.2-1.8,9.9-4,14.6
		c-0.5-0.5-0.9-1.1-1.4-1.6c-0.9-0.9-1.9-1-2.8-0.3c-0.9,0.7-1.1,1.6-0.3,2.7c0.7,1.1,1.6,2.2,2.4,3.3c-0.8,0.9-1.7,1.7-2.3,2.7
		c-0.7,1.1-1.6,1.4-2.8,1.4c-4.9-0.7-8.1,2.5-8.8,5.4c-0.3,1.1-0.3,2.3-0.5,3.5C488.1,392.6,485.9,393.5,483.7,394.4z M476.8,353.8
		c-7.7,0-13.9,5.9-13.9,13.5c-0.1,7.5,6.2,13.9,13.8,13.9c7.5,0,13.8-6.2,13.8-13.7C490.5,360,484.4,353.9,476.8,353.8z M489,384.9
		C489,384.9,489,384.9,489,384.9c0.1-0.9,0.1-1.8,0.1-2.6c-0.1-1.2-0.9-2-2-2c-1.1,0-1.9,0.6-2,1.7c-0.2,1.7-0.2,3.5-0.1,5.2
		c0.1,1,0.8,1.7,2,1.7c1.1,0,1.8-0.6,2-1.6C489.1,386.5,489,385.7,489,384.9z M480,337.9c0-1.5-0.6-2.4-1.5-2.6
		c-1-0.2-1.8,0.2-2.2,1.1c-0.6,1.6-1.1,3.3-1.6,5c-0.3,1.1,0.4,1.9,1.4,2.2c1,0.3,1.9-0.1,2.2-1C479.1,341,479.6,339.2,480,337.9z
		 M459.4,367.3c-0.7-2.1-1.1-3.9-1.8-5.6c-0.4-0.9-1.2-1.3-2.2-0.9c-0.9,0.3-1.6,1.1-1.4,2c0.4,1.9,1,3.7,1.7,5.5
		c0.3,0.8,1.4,1.3,2.2,0.7C458.5,368.5,459,367.8,459.4,367.3z M504.8,349.7c-0.2-0.3-0.5-0.9-0.9-1.2c-1.5-0.9-3.1-1.7-4.6-2.4
		c-1-0.5-1.7,0-2.2,0.7c-0.5,0.8-0.6,1.9,0.2,2.4c1.7,1.1,3.5,2.1,5.4,2.8C503.8,352.3,504.9,351.1,504.8,349.7z M462.6,341.4
		c0.1,0,0.6,0,0.7-0.2c1.3-1.7,2.6-3.4,3.7-5.2c0.2-0.4-0.3-1.6-0.8-2c-0.5-0.3-1.8-0.2-2.1,0.2c-1.3,1.4-2.5,2.9-3.4,4.6
		C459.9,339.9,461,341.4,462.6,341.4z M492.5,358.7c-0.2,1.6,0.3,2.4,1.4,2.7c1.1,0.3,1.9-0.2,2.3-1.2c0.6-1.5,1-3,1.4-4.6
		c0.3-1.2-0.2-2.1-1.3-2.5c-1-0.4-2,0-2.5,1.2C493.2,356,492.8,357.6,492.5,358.7z M473.3,350c-1.2-2.2-1.8-4.5-3.6-6
		c-0.4-0.3-1.5-0.2-2,0.1c-0.5,0.3-1,1.4-0.8,1.8c0.8,1.9,1.9,3.7,3,5.4c0.2,0.4,1.4,0.4,1.9,0.2C472.4,351.3,472.8,350.6,473.3,350
		z M486.8,345.7c-0.4-0.4-0.7-1.1-1.3-1.3c-0.9-0.4-1.9-0.2-2.5,0.7c-0.8,1.3-1.5,2.7-2.1,4c-0.6,1.3-0.3,2.3,0.7,2.9
		c0.9,0.5,2,0.2,2.7-0.9c0.8-1.3,1.5-2.8,2.2-4.2C486.7,346.6,486.7,346.3,486.8,345.7z M450.6,360.5c-1.2-2-2.3-3.9-3.6-5.7
		c-0.2-0.3-1.4-0.3-2-0.1c-0.8,0.3-1.3,1.2-0.9,2c0.8,1.8,1.8,3.5,2.9,5.2c0.5,0.7,1.4,0.9,2.1,0.3
		C449.6,361.9,450,361.2,450.6,360.5z M499.9,369.7c1.3-0.1,2.1,0,2.9-0.1c1.6-0.2,2.3-1.1,2.2-2.3c-0.1-1.1-1-1.8-2.4-1.8
		c-1.5,0-3,0.2-4.5,0.4c-1.1,0.2-1.8,1-1.7,2c0.1,1.1,0.8,1.7,1.9,1.8C499,369.8,499.7,369.7,499.9,369.7z M449.1,368
		c-2,1.2-3.9,2.2-5.6,3.4c-0.4,0.3-0.4,1.5-0.1,1.9c0.4,0.6,1.4,1.2,1.9,1c1.9-0.8,3.7-1.8,5.4-2.9c0.4-0.2,0.5-1.4,0.3-1.9
		C450.7,368.9,449.9,368.6,449.1,368z M498.3,376.2c-0.2-0.2-0.4-0.8-0.9-1.1c-1.4-0.8-2.8-1.6-4.2-2.3c-1.2-0.5-2.1-0.1-2.7,0.9
		c-0.5,0.9-0.2,2,0.9,2.7c1.4,0.8,2.8,1.6,4.2,2.2C497,379.2,498.4,378.2,498.3,376.2z M461.4,374.4c-0.4-0.5-0.8-1.4-1.4-1.6
		c-0.6-0.2-1.7,0-2.1,0.4c-1.1,1.1-2.1,2.4-3,3.7c-0.8,1.1-0.5,2.3,0.4,2.9c0.9,0.6,1.8,0.5,2.7-0.5c0.9-1.1,1.8-2.2,2.7-3.4
		C461,375.6,461.1,375.1,461.4,374.4z M464.4,387.8c0.4-0.3,1.1-0.7,1.5-1.3c0.8-1.3,1.4-2.7,2.1-4c0.6-1,0.2-1.9-0.7-2.5
		c-0.9-0.5-2-0.6-2.6,0.4c-1,1.5-1.9,3.1-2.6,4.8C461.8,386.5,462.8,387.7,464.4,387.8z M492.5,339.8c-0.2-0.6-0.2-0.9-0.3-1.2
		c-1-1.4-2-2.9-3.1-4.2c-0.7-0.9-1.6-1-2.6-0.3c-0.9,0.6-1.2,1.6-0.6,2.5c0.9,1.5,1.9,2.9,3.1,4.2c0.4,0.4,1.5,0.5,2.1,0.4
		C491.8,341,492.1,340.2,492.5,339.8z M459.3,345.4c0.1-1.8-1.4-2.8-2.8-2.2c-1.4,0.6-2.9,1.4-4.2,2.2c-1.1,0.7-1.4,1.7-0.8,2.6
		c0.5,0.9,1.6,1.3,2.7,0.8c1.4-0.7,2.8-1.4,4.2-2.3C458.8,346.3,459.1,345.7,459.3,345.4z M462.7,355.2
		C462.7,355.2,462.8,355.2,462.7,355.2c0-1,0.1-2.1-0.2-3.1c-0.2-0.9-0.9-1.5-1.9-1.5c-1,0-1.7,0.6-1.8,1.6
		c-0.1,1.8-0.1,3.7,0.1,5.5c0.1,0.9,0.9,1.5,1.9,1.5c1,0,1.7-0.6,1.8-1.5C462.8,356.8,462.7,356,462.7,355.2z" class="colorec65a5 svgShape"></path><path fill="#9e7d5c" d="M456.9,393.2c0.5,6,5.7,9.3,10.9,7.1c1.9-0.8,3.1-2.4,4.1-4.1c2.5-0.2,5.1-0.4,7.6-0.5c0.9,1.8,2,3.4,3.8,4.5
		c4.9,2.7,11-0.7,11.2-6.3c0-1.1-0.1-2.2,0-3.4c0.2-2.2,1.7-3.8,3.6-3.8c2.1,0,3.5,1.6,3.6,4c0.2,4.7,0.2,4.8-3.6,7.4
		c-5,3.5-10.5,5.6-16.6,6.4c-9.7,1.3-18.5-1.1-26.6-6.6c-0.8-0.5-1.5-1.3-2.3-1.7c-2.4-1.4-3.5-3.4-2.8-6.2
		C452.1,391.2,454.2,392.7,456.9,393.2z" class="color9e7d5c svgShape"></path><path fill="#a64974" d="M510.7,355.8c0.2-0.8,0.4-1.6,0.5-2.4c0.5,1.2,1.1,2.3,1.5,3.5c3.2,11.7,1.4,22.6-5.6,32.5
		c-0.2,0.3-0.4,0.7-0.8,1c-0.9-4-2.8-6.6-6.7-7.6c1.2,0,2.1-0.3,2.7-1.4c0.6-1,1.5-1.8,2.3-2.7c0.2,0.2,0.4,0.5,0.7,0.6
		c1.1,0.7,2,0.7,2.8,0c0.8-0.8,0.8-1.6,0-2.8c-0.4-0.7-0.9-1.3-1.4-1.9c2.2-4.6,3.8-9.4,4-14.6c0-0.3,0-0.6-0.1-1
		C511.1,358,511.4,356.9,510.7,355.8z" class="colora64974 svgShape"></path><path fill="#dfb181" d="M479.4 395.6c-2.5.2-5.1.4-7.6.5.1-1.5.3-3 .4-4.5.2-2.1 1.4-3.3 3.3-3.3 1.9-.1 3.3 1 3.6 3C479.4 392.7 479.4 394.2 479.4 395.6zM456.9 393.2c-2.7-.5-4.8-2-7.1-3.4.7-2.3 2.1-3.5 4-3.2 1.9.3 3 1.7 3.1 3.9C457 391.4 456.9 392.3 456.9 393.2z" class="colordfb181 svgShape"></path><path fill="#a64974" d="M483.7,394.4c2.2-0.9,4.4-1.8,6.6-2.7c0.4,1.5,0.3,2.9-0.7,4C487.8,397.9,484.8,397.3,483.7,394.4z" class="colora64974 svgShape"></path><path fill="#333436" d="M447.8,297.7c1.6,0,3.2,0,4.8,0c0.5,0,1,0,1.4,0.2c1,0.4,1.5,1.1,1.5,2.2c-0.1,1.1-0.8,1.9-2,1.9
		c-3.6,0.1-7.2,0-10.7,0c-1.4,0-2.1-0.9-2.2-2.1c0-1.3,0.8-2.1,2.3-2.2C444.5,297.6,446.2,297.7,447.8,297.7
		C447.8,297.7,447.8,297.7,447.8,297.7z" class="color333436 svgShape"></path><path fill="#d05519" d="M378.6,228.2c0,0.1,0,0.3,0.1,0.4c-0.1,1-0.3,1.9-0.4,2.9c-0.2,0.2-0.3,0.3-0.5,0.5l0,0
		c-6.5,0.7-13.1,1.4-19.6,2c-5.1,0.5-10.1,0.9-15.2,1.4c-2.5,0.2-5,0.6-7.5,0.8c-1.3,0.2-2.7,0.4-4,0.7c-4,1-8,1.4-12.1,1.4
		c-6.7,0-13.4,0.1-20.1,0c-7.1-0.1-14.1-1.3-21.1-2.9c-3.1-0.7-3.7-1.6-4-4.8c-0.6-6.4-1.4-12.8-3.7-19c-0.5-1.4-0.6-2.9-0.8-4.5
		c1.1-0.6,2.1-1,2.9-1.5c1.3-0.8,2.7-1.7,3.9-2.7c1.5-1.2,2.2-2.7,2-4.6c-0.2-1.8,0.5-3.1,1.9-4.1c1-0.8,1.9-1.7,2.8-2.6
		c2.7-2.5,8.9-1.2,10.4,2.1c0.5,1.2,0.3,2.5-0.2,3.7c-1,2.5-0.6,4.3,1.7,5.8c1.5,0.9,3.3,1.5,5.1,1.9c1.5,0.4,3-0.1,4.2-1.3
		c2-1.9,4.1-3.7,5.4-6.3c1.8-3.5,8-5.5,11.6-4c3,1.2,4.4,3.8,3.5,6.9c-0.4,1.4-1,2.7-1.6,4c-1,2.3-2.2,4.6-3.2,7
		c-1.1,2.4-0.8,3.7,1.3,5.2c2.8,2.1,5.8,3.3,9.4,2.5c4.3-1,7.4-4.6,7.6-9c0.1-1.6,0.1-3.2,0.1-4.8c0.1-2.4,0.9-4.5,3.2-5.5
		c2.3-1.1,4.6-0.7,6.6,0.7c1.6,1.1,3,2.4,4.4,3.7c2.4,2.4,5.6,2.5,8.1,0.2c1.5-1.4,2.4-3.1,3-5.1c0.3-1.1,0.6-2.3,0.9-3.5
		c1.1-3.7,4.7-5.8,8.4-5c1.9,0.4,3.7,0.9,5.6,1.4c1.2,0.3,2.2,0.9,2.2,2.4c-0.4,1.5-0.8,2.9-1.1,4.4c-0.7,3.3-1.4,6.7-1.9,10
		c-0.8,5.6-0.6,11.2,0.4,16.8C378.4,226.6,378.5,227.4,378.6,228.2z" class="colord05519 svgShape"></path><path fill="#febd7a" d="M344.6,247.8c0.9-2.7,3.3-3.2,5.6-3.8c2.4-0.6,4.8-0.9,7.2-1.4c0.8-0.1,1.6-0.2,2.4-0.1
		c2.7,0.4,5.4,1,7.9,2.3c-0.7-0.1-1.4-0.1-2.1-0.2c-1.4-0.2-2.8-0.5-4.2-0.6c-1.1-0.1-2,0.3-2.2,1.7c0.3,0.3,0.6,0.5,0.9,0.7
		c1.4,1.2,2.9,2.3,4.2,3.5c1.3,1.3,2.2,2.8,1.6,4.9c-0.6,2.1-0.9,4.4-1.2,6.6c-0.3,1.9-0.4,3.8-0.6,5.7c-0.5,4.1-1,8.2-1.7,12.3
		c-0.5,3.1-1,6.1-1.9,9.1c-0.9,2.9,1,5.1,3.4,4.9c2.2-0.2,4.4-0.3,6.6-0.7c3.4-0.6,5.8-2.2,5.9-6c0-0.2,0.2-0.5,0.2-0.7
		c2.2-6.8,4.3-13.7,6.5-20.5c0.6-2,1.1-4,1.8-5.9c0.4-1.2,0.9-2.4,1.6-3.4c1-1.5,2.4-2.7,3.5-4.2c1.9-2.7,4.4-4.4,7.9-4.1
		c0.7,0.1,1.6,0,1.7-0.8c0.1-0.6-0.2-1.5-0.6-1.9c-0.5-0.5-1.3-0.9-2.1-1c-1.9-0.3-3.6,0.3-5.1,1.5c-1.1,0.9-2,1.8-3.1,2.6
		c-1.4,1-2.9,2-4.7,2.1c0.5-0.4,0.9-0.9,1.4-1.2c1.4-0.7,2.4-1.7,3.5-2.8c2-2,4.5-3.5,7.5-3.8c2.1-0.2,3.4,0.8,4.3,2.4
		c0.8,1.5,1.2,3.1,0.8,4.8c-0.2,0.9-0.3,1.9,0,2.8c0.5,2,0.3,3.8-0.6,5.6c-3.6,7-5.9,14.5-8.5,21.8c-1.3,3.5-2.6,7-4,10.5
		c-1,2.5-3.5,3.8-6.2,3.3c-1.9-0.3-3.9-0.8-5.9-0.7c-2.1,0.1-4.2,0.8-6.3,1c-3.4,0.2-6.8,0.2-10.3,0.3c-1,0-2,0-3,0
		c-1.6,0-3.2,0.1-4.8,0c-4.3-0.2-8.4,0.3-12.5,1.5c-4,1.2-8,0.6-12,0.2c-1.1-0.1-2.2-0.2-3.3-0.2c-2.2,0.1-4.4,0.3-6.7,0.4
		c-2,0.1-4,0.1-5.9,0.6c-3.9,0.9-7.6,0.1-11.3-0.7c-1.9-0.4-3.9-0.6-5.9-0.8c-4.8-0.4-9.5-0.7-14.3-0.9c-2.7-0.1-5.1-0.7-7.5-2
		c-1-0.6-2.4-0.7-3.7-0.9c-1.8-0.3-3.6-0.4-5.5-0.5c-1.8-0.2-3-1-3.1-2.7c-0.2-3.3-1.6-6.1-2.7-9.1c-1-2.8-2.1-5.7-3.2-8.5
		c-0.8-2-1.6-4-2.4-6c-0.4-1-0.8-1.9-1-2.9c-0.3-1.7,0-2.9,1.8-3.9c2.4-1.2,4.5-2.9,6.2-5.2c0.5-0.7,1.4-1.2,2.1-1.9
		c-0.3,1.9,0.1,3.5,1.7,4.9c0.9,0.8,1.3,2.2,1.6,3.4c1,4.2,1.9,8.5,2.9,12.8c1.2,5.1,3.4,10,3.5,15.3c0,0.9,0.7,1.8,1.2,2.5
		c2.9,3.8,6.8,4.7,11.3,4.1c2.2-0.3,3.6-2.3,3.1-4.6c-0.8-3.7-1.5-7.5-2-11.3c-0.8-5.8-0.9-11.6-1.2-17.4c-0.2-3,1.5-4,4.4-2.7
		c0.2,0.1,0.4,0.2,0.6,0.3c1.1,0.7,2.2,0.6,3.4,0.1c1.1-0.5,2.4-0.8,3.7-0.8c1.6,0,2.3,0.9,2.3,2.4c0.2,6.2,0.3,12.4,0.4,18.7
		c0,1.4-0.4,2.8-0.4,4.3c0.1,2.7,0.2,5.4,0.5,8.1c0.1,1.3,0.6,2.5,1.9,3.2c3.3,1.6,6.8,2.3,10.4,1c1.2-0.4,2.1-1.1,2.1-2.6
		c0.1-1.9,0.3-3.8,0.4-5.7c0.3-3.3,0.7-6.6,1-10c0.1-1.4,0.4-2.8,0.4-4.3c0.2-4.9,0.4-9.8,0.5-14.8c0-1.2,0.6-1.7,1.5-2.2
		c1.1-0.4,1.6,0.3,2.3,0.9c0.3,0.3,0.7,0.7,0.9,1.1c2.4,3.7,5.9,5.9,10.1,7.1c2.5,0.7,2.9,1.5,2.3,4c-0.3,1.2-0.6,2.3-0.7,3.5
		c-0.2,3.3-0.4,6.5-0.5,9.8c-0.1,2.9,0.1,5.8-0.9,8.5c-0.1,0.4-0.1,0.8-0.1,1.2c-0.1,1.3,0.5,2,1.7,2.6c3,1.4,5.9,0.8,8.8-0.5
		c2-0.9,3-3.3,2.7-5.4c-0.1-0.8-0.1-1.8,0.1-2.6c1.1-3.6,2.2-7.3,2.9-11c1-4.8,2.5-9.4,3.6-14.1c0.5-2,1.3-4.1,1.1-6
		c-0.2-2.3,0.6-3.8,1.8-5.5c0.6-0.9,1.3-1.6,1.9-2.5c0.3-0.5,0.5-1.1,0.7-1.7c-3.6-0.5-6.8-0.4-9.4,2.2
		C345.5,247.6,345,247.7,344.6,247.8z" class="colorfebd7a svgShape"></path><path fill="#eb8641" d="M344.6 247.8c.4-.1.8-.2 1.1-.4 2.6-2.6 5.8-2.8 9.4-2.2-.3.6-.4 1.2-.7 1.7-.6.9-1.3 1.6-1.9 2.5-1.1 1.6-2 3.2-1.8 5.5.2 2-.6 4.1-1.1 6-1.2 4.7-2.7 9.4-3.6 14.1-.8 3.8-1.8 7.4-2.9 11-.2.8-.2 1.7-.1 2.6.3 2.1-.8 4.5-2.7 5.4-2.8 1.3-5.7 1.9-8.8.5-1.2-.6-1.8-1.3-1.7-2.6 0-.4 0-.8.1-1.2 1.1-2.8.8-5.6.9-8.5.1-3.3.2-6.5.5-9.8.1-1.2.4-2.3.7-3.5.6-2.6.2-3.4-2.3-4-4.2-1.2-7.7-3.4-10.1-7.1-.3-.4-.6-.8-.9-1.1-.6-.6-1.2-1.3-2.3-.9-1 .4-1.5 1-1.5 2.2-.1 4.9-.3 9.8-.5 14.8-.1 1.4-.3 2.8-.4 4.3-.3 3.3-.7 6.6-1 10-.2 1.9-.4 3.8-.4 5.7-.1 1.5-.9 2.2-2.1 2.6-3.6 1.3-7.1.6-10.4-1-1.3-.6-1.8-1.9-1.9-3.2-.3-2.7-.4-5.4-.5-8.1 0-1.4.4-2.8.4-4.3-.1-6.2-.3-12.4-.4-18.7 0-1.6-.7-2.5-2.3-2.4-1.2 0-2.5.3-3.7.8-1.2.5-2.3.7-3.4-.1-.2-.1-.4-.2-.6-.3-2.8-1.3-4.5-.3-4.4 2.7.4 5.8.4 11.6 1.2 17.4.5 3.8 1.2 7.5 2 11.3.5 2.3-.9 4.3-3.1 4.6-4.5.6-8.4-.4-11.3-4.1-.6-.7-1.2-1.7-1.2-2.5-.1-5.4-2.3-10.2-3.5-15.3-1-4.3-1.9-8.5-2.9-12.8-.3-1.2-.8-2.6-1.6-3.4-1.5-1.4-2-3-1.7-4.9.4-.5.9-1 1.3-1.5.2-.2.3-.3.5-.5l0 0c.2-.2.3-.3.5-.5 2-2.2 4.6-3.6 7.3-4.8 1.4-.6 2.7-.6 4.2-.1 3.5 1.3 6.6 3 9.1 5.9 1 1.2 2.3 2.3 3.6 3 3 1.5 5.9.8 8.6-1 1.8-1.2 3.3-2.7 5.1-4 1.6-1.1 3.3-2 4.9-2.9.2-.1.4-.2.6-.3.1 0 .3-.1.4-.1.4-.1.7-.2 1.1-.4.3 0 .6-.1.9-.1.5 0 1 0 1.5 0 .3 0 .6.1.9.1.5.2 1 .3 1.5.5.3.2.6.3 1 .5.5 1 1.4 1.4 2.5 1.4.3.2.5.4.8.6.1.7.1 1.4 1 1.4l0 0c0 .8.1 1.6 1 1.9 0 0 0 0 0 0 .7 2.1 2 3.7 3.9 4.8.5.3.9.7 1.4 1 .3.2.6.4.9.6.4.4.7.8 1.1 1.3 1.7 1.3 3.3 1.5 5.2.4.3-.1.6-.3.9-.4.2-.1.3-.3.5-.4l0 0c.3-.2.6-.4.9-.6.3-.3.7-.6 1-.9.2-.2.4-.3.5-.5.3-.3.7-.6 1-.9.3-.2.6-.4.9-.6l0 0c.3-.2.6-.4.9-.6.2-.1.3-.3.5-.4.2-.2.3-.3.5-.5l0 0c.2-.2.3-.3.5-.5l0 0c.3-.2.6-.4.9-.6.7-.6 1.3-1.2 2-1.9.5-.3 1-.7 1.4-1l0 0C344.3 248.1 344.5 247.9 344.6 247.8L344.6 247.8zM384 250.2c1.8-.1 3.3-1.1 4.7-2.1 1.1-.8 2.1-1.7 3.1-2.6 1.5-1.2 3.2-1.8 5.1-1.5.7.1 1.6.5 2.1 1 .4.4.7 1.3.6 1.9-.1.9-1 .9-1.7.8-3.5-.3-5.9 1.4-7.9 4.1-1.1 1.5-2.5 2.7-3.5 4.2-.7 1-1.2 2.2-1.6 3.4-.7 2-1.2 4-1.8 5.9-2.2 6.8-4.3 13.7-6.5 20.5-.1.2-.2.5-.2.7-.1 3.9-2.5 5.5-5.9 6-2.2.4-4.4.5-6.6.7-2.4.2-4.3-2-3.4-4.9.9-2.9 1.4-6 1.9-9.1.6-4.1 1.1-8.2 1.7-12.3.2-1.9.4-3.8.6-5.7.3-2.2.6-4.4 1.2-6.6.6-2.1-.2-3.6-1.6-4.9-1.3-1.3-2.8-2.4-4.2-3.5-.3-.2-.6-.5-.9-.7.2-1.4 1.1-1.8 2.2-1.7 1.4.1 2.8.4 4.2.6.7.1 1.4.2 2.1.2.1 0 .3.1.4.1.5.2 1 .3 1.5.5.1 0 .2.1.4.1.8.6 1.7 1.2 2.5 1.8l0 0c.2.2.3.3.5.5l0 0c.2.2.3.3.5.5.2.1.3.3.5.4 1.1 1.9 3 2.4 4.9 2.9.2.1.5-.2.8-.4.3 0 .6 0 .9 0 .2 0 .3 0 .5 0 .1 0 .3-.1.4-.1.4-.1.7-.2 1.1-.3.1 0 .3-.1.4-.1C383.3 250.5 383.7 250.3 384 250.2L384 250.2z" class="coloreb8641 svgShape"></path><path fill="#dfb181" d="M335.5,236.2c2.5-0.3,5-0.6,7.5-0.8c5.1-0.5,10.1-0.9,15.2-1.4c6.5-0.6,13.1-1.3,19.6-2
		c-0.6,0.3-1.2,0.9-1.8,0.9c-4-0.2-7.9,0.9-11.8,1.4c-3.5,0.5-7.1,0.6-10.7,1.1c-3.7,0.6-7.5-0.1-11,1.7c-0.6,0.3-1.7,0.3-2.3,0
		C338.6,236.2,337,236.3,335.5,236.2z" class="colordfb181 svgShape"></path><path fill="#febd7a" d="M323.1 254.5c-1.9-1.1-3.2-2.7-3.9-4.8C321.1 250.8 322.5 252.3 323.1 254.5zM379.7 251.2c-.3.1-.6.4-.8.4-1.9-.5-3.8-1-4.9-2.9.6.2 1.2.3 1.8.5C377.1 249.8 378.4 250.5 379.7 251.2zM331.7 257.8c-1.9 1-3.6.9-5.2-.4C328.2 257.5 329.9 257.6 331.7 257.8z" class="colorfebd7a svgShape"></path><path fill="#fdbd79" d="M417.1,332.3c-0.5-1.6-0.9-3.2-1.4-4.8C417.3,328.8,417.1,330.5,417.1,332.3z" class="colorfdbd79 svgShape"></path><path fill="#febd7a" d="M372.5 247.3c-.8-.6-1.7-1.2-2.5-1.8C371.2 245.5 372.3 245.9 372.5 247.3zM316.4 245.8c-1.1-.1-2-.4-2.5-1.4C315 244.4 316 244.6 316.4 245.8zM319.2 249.7c-.9-.3-1.1-1-1-1.9C319.1 248.1 319.3 248.9 319.2 249.7z" class="colorfebd7a svgShape"></path><path fill="#febd7a" d="M318.2 247.8c-.9-.1-.9-.8-1-1.4C317.5 246.9 317.9 247.4 318.2 247.8zM344.1 248.2c-.5.3-1 .7-1.4 1C342.7 248.2 343.4 248.2 344.1 248.2zM310.6 243.4c-.5 0-1 0-1.5 0C309.6 242.9 310.1 242.9 310.6 243.4zM369.6 245.4c-.5-.2-1-.3-1.5-.5C368.6 245.1 369.1 245.3 369.6 245.4zM313 243.9c-.5-.2-1-.3-1.5-.5C312 243.6 312.5 243.8 313 243.9zM382.6 250.7c-.4.1-.7.2-1.1.3C381.9 250.9 382.2 250.8 382.6 250.7zM340.7 251.1c-.3.2-.6.4-.9.6C340.1 251.5 340.4 251.3 340.7 251.1zM325.4 256.1c-.3-.2-.6-.4-.9-.6C324.8 255.7 325.1 255.9 325.4 256.1zM384 250.2c-.3.1-.7.3-1 .4C383.3 250.5 383.7 250.3 384 250.2zM308.2 243.5c-.4.1-.7.2-1.1.4C307.5 243.8 307.9 243.7 308.2 243.5zM338.3 253c-.3.2-.6.4-.9.6C337.7 253.4 338 253.2 338.3 253zM334 256.3c-.3.2-.6.4-.9.6C333.4 256.7 333.7 256.5 334 256.3zM337.4 253.6c-.3.2-.6.4-.9.6C336.9 253.9 337.1 253.7 337.4 253.6zM339.4 252.1c-.2.2-.3.3-.5.5C339 252.4 339.2 252.3 339.4 252.1zM339.9 251.7c-.2.2-.3.3-.5.5C339.5 252 339.7 251.8 339.9 251.7z" class="colorfebd7a svgShape"></path><path fill="#fdbd79" d="M415.6 327.5c-.2-.1-.3-.3-.5-.4C415.3 327.2 415.5 327.4 415.6 327.5zM414.8 327c-.2-.1-.4-.2-.6-.4C414.4 326.7 414.6 326.8 414.8 327z" class="colorfdbd79 svgShape"></path><path fill="#febd7a" d="M306.8 244c-.2.1-.4.2-.6.4C306.4 244.2 306.6 244.1 306.8 244zM381.1 251.1c-.2 0-.3 0-.5 0C380.8 251.2 380.9 251.2 381.1 251.1zM263 248.7c-.2.2-.3.3-.5.5C262.7 249 262.8 248.9 263 248.7zM263.5 248.2c-.2.2-.3.3-.5.5C263.2 248.6 263.3 248.4 263.5 248.2zM373.5 248.3c-.2-.2-.3-.3-.5-.5C373.1 247.9 373.3 248.1 373.5 248.3z" class="colorfebd7a svgShape"></path><path fill="#dfb181" d="M377.8,232c0.2-0.2,0.3-0.3,0.5-0.5C378.1,231.6,377.9,231.8,377.8,232z" class="colordfb181 svgShape"></path><path fill="#febd7a" d="M333.1 256.9c-.2.1-.3.3-.5.4C332.8 257.2 332.9 257 333.1 256.9zM335.5 255c-.2.2-.4.3-.5.5C335.2 255.3 335.4 255.2 335.5 255zM373 247.8c-.2-.2-.3-.3-.5-.5C372.6 247.5 372.8 247.6 373 247.8zM344.6 247.8c-.2.1-.3.3-.5.4C344.3 248.1 344.5 247.9 344.6 247.8z" class="colorfebd7a svgShape"></path><path fill="#dfb181" d="M378.6,228.2c-0.1-0.8-0.2-1.7-0.3-2.5C378.4,226.6,378.5,227.4,378.6,228.2z" class="colordfb181 svgShape"></path><path fill="#353234" d="M279.9 357.2c7.6 0 13.8 6.1 13.8 13.6 0 7.6-6.4 13.8-14 13.7-7.5-.1-13.7-6.3-13.7-13.8C266.1 363.2 272.3 357.2 279.9 357.2zM279.8 361c-5.5 0-9.9 4.4-9.8 9.9.1 5 3.9 9.7 10.1 9.7 5.4 0 9.7-4.5 9.7-9.8C289.8 365.3 285.4 361 279.8 361zM476.8 353.8c7.6 0 13.7 6.1 13.7 13.7 0 7.5-6.3 13.7-13.8 13.7-7.6 0-13.9-6.3-13.8-13.9C462.9 359.7 469.1 353.8 476.8 353.8zM476.7 357.6c-5.6 0-9.9 4.3-10 9.8 0 5.4 4.5 9.9 10 9.8 5.3 0 9.8-4.4 9.8-9.8C486.7 362.1 482.2 357.6 476.7 357.6z" class="color353234 svgShape"></path></svg></g></svg>